<?xml version="1.0" encoding="UTF-8"?><svg version="1.1" width="66px" height="66px" viewBox="0 0 66.0 66.0" xmlns="http://www.w3.org/2000/svg" xmlns:xlink="http://www.w3.org/1999/xlink"><defs><clipPath id="bg2bgij-i0"><path d="M66,0 L66,66 L0,66 L0,0 L66,0 Z"></path></clipPath><clipPath id="bg2bgij-i1"><path d="M56,0 L56,56 L0,56 L0,0 L56,0 Z"></path></clipPath><clipPath id="bg2bgij-i2"><path d="M56,0 L56,1.4 L0,1.4 L0,0 L56,0 Z"></path></clipPath><clipPath id="bg2bgij-i3"><path d="M1.4,0 L1.4,8.4 L0,8.4 L0,0 L1.4,0 Z"></path></clipPath><clipPath id="bg2bgij-i4"><path d="M4.2,0 L4.2,4.2 L0,4.2 L0,0 L4.2,0 Z"></path></clipPath><clipPath id="bg2bgij-i5"><path d="M4.2,0 L4.2,1.4 L0,1.4 L0,0 L4.2,0 Z"></path></clipPath><clipPath id="bg2bgij-i6"><path d="M48,0 L48,18 L0,18 L0,0 L48,0 Z"></path></clipPath><clipPath id="bg2bgij-i7"><path d="M4.23529412,0 L4.235,2.769 L7.05882353,2.76923077 L7.05882353,4.15384615 L4.235,4.153 L4.23529412,6.92307692 L2.82352941,6.92307692 L2.823,4.153 L0,4.15384615 L0,2.76923077 L2.823,2.769 L2.82352941,0 L4.23529412,0 Z"></path></clipPath><clipPath id="bg2bgij-i8"><path d="M23,0 L23,18 L0,18 L0,0 L23,0 Z"></path></clipPath><clipPath id="bg2bgij-i9"><path d="M4.3125,0 L4.312,2.769 L7.1875,2.76923077 L7.1875,4.15384615 L4.312,4.153 L4.3125,6.92307692 L2.875,6.92307692 L2.874,4.153 L0,4.15384615 L0,2.76923077 L2.874,2.769 L2.875,0 L4.3125,0 Z"></path></clipPath><clipPath id="bg2bgij-i10"><path d="M4.3125,0 L4.312,2.769 L7.1875,2.76923077 L7.1875,4.15384615 L4.312,4.153 L4.3125,6.92307692 L2.875,6.92307692 L2.874,4.153 L0,4.15384615 L0,2.76923077 L2.874,2.769 L2.875,0 L4.3125,0 Z"></path></clipPath></defs><g clip-path="url(#bg2bgij-i0)"><g transform="translate(5.0 5.0)"><g clip-path="url(#bg2bgij-i1)"><polygon points="0,0 56,0 56,56 0,56 0,0" stroke="none" fill="#FF4E00"></polygon></g><g transform="translate(0.0 7.0)"><g clip-path="url(#bg2bgij-i2)"><polygon points="0,0 56,0 56,1.4 0,1.4 0,0" stroke="none" fill="#FFFFFF"></polygon><polygon points="0,0 56,0 56,1.4 0,1.4 0,0 0,0" stroke="#FFFFFF" stroke-width="2.8" fill="none" stroke-miterlimit="5"></polygon></g></g><g transform="translate(47.59999999999999 0.0)"><g clip-path="url(#bg2bgij-i3)"><polygon points="0,0 1.4,0 1.4,8.4 0,8.4 0,0" stroke="none" fill="#FFFFFF"></polygon><polygon points="0,0 1.4,0 1.4,8.4 0,8.4 0,0 0,0" stroke="#FFFFFF" stroke-width="2.8" fill="none" stroke-miterlimit="5"></polygon></g></g><g transform="translate(1.4 1.4)"><g clip-path="url(#bg2bgij-i4)"><polygon points="0,0 4.2,0 4.2,4.2 0,4.2 0,0" stroke="none" fill="#FFFFFF"></polygon><polygon points="0,0 4.2,0 4.2,4.2 0,4.2 0,0 0,0" stroke="#FFFFFF" stroke-width="2.8" fill="none" stroke-miterlimit="5"></polygon></g></g><g transform="translate(50.4 1.4)"><g clip-path="url(#bg2bgij-i4)"><polygon points="0,0 4.2,0 4.2,4.2 0,4.2 0,0 0,0" stroke="#FFFFFF" stroke-width="2.8" fill="none" stroke-miterlimit="5"></polygon></g></g><g transform="translate(25.199999999999996 1.3999999999999997)"><g clip-path="url(#bg2bgij-i5)"><polygon points="0,0 4.2,0 4.2,1.4 0,1.4 0,0" stroke="none" fill="#FFFFFF"></polygon><polygon points="0,0 4.2,0 4.2,1.4 0,1.4 0,0 0,0" stroke="#FFFFFF" stroke-width="2.8" fill="none" stroke-miterlimit="5"></polygon></g></g><g transform="translate(25.199999999999996 4.199999999999999)"><g clip-path="url(#bg2bgij-i5)"><polygon points="0,0 4.2,0 4.2,1.4 0,1.4 0,0" stroke="none" fill="#FFFFFF"></polygon><polygon points="0,0 4.2,0 4.2,1.4 0,1.4 0,0 0,0" stroke="#FFFFFF" stroke-width="2.8" fill="none" stroke-miterlimit="5"></polygon></g></g><g transform="translate(30.799999999999997 4.199999999999999)"><g clip-path="url(#bg2bgij-i5)"><polygon points="0,0 4.2,0 4.2,1.4 0,1.4 0,0" stroke="none" fill="#FFFFFF"></polygon><polygon points="0,0 4.2,0 4.2,1.4 0,1.4 0,0 0,0" stroke="#FFFFFF" stroke-width="2.8" fill="none" stroke-miterlimit="5"></polygon></g></g><g transform="translate(36.4 1.3999999999999997)"><g clip-path="url(#bg2bgij-i5)"><polygon points="0,0 4.2,0 4.2,1.4 0,1.4 0,0" stroke="none" fill="#FFFFFF"></polygon><polygon points="0,0 4.2,0 4.2,1.4 0,1.4 0,0 0,0" stroke="#FFFFFF" stroke-width="2.8" fill="none" stroke-miterlimit="5"></polygon></g></g><g transform="translate(30.799999999999997 1.3999999999999997)"><g clip-path="url(#bg2bgij-i5)"><polygon points="0,0 4.2,0 4.2,1.4 0,1.4 0,0" stroke="none" fill="#FFFFFF"></polygon><polygon points="0,0 4.2,0 4.2,1.4 0,1.4 0,0 0,0" stroke="#FFFFFF" stroke-width="2.8" fill="none" stroke-miterlimit="5"></polygon></g></g><g transform="translate(36.4 4.199999999999999)"><g clip-path="url(#bg2bgij-i5)"><polygon points="0,0 4.2,0 4.2,1.4 0,1.4 0,0" stroke="none" fill="#FFFFFF"></polygon><polygon points="0,0 4.2,0 4.2,1.4 0,1.4 0,0 0,0" stroke="#FFFFFF" stroke-width="2.8" fill="none" stroke-miterlimit="5"></polygon></g></g><g transform="translate(42.0 1.3999999999999997)"><g clip-path="url(#bg2bgij-i5)"><polygon points="0,0 4.2,0 4.2,1.4 0,1.4 0,0" stroke="none" fill="#FFFFFF"></polygon><polygon points="0,0 4.2,0 4.2,1.4 0,1.4 0,0 0,0" stroke="#FFFFFF" stroke-width="2.8" fill="none" stroke-miterlimit="5"></polygon></g></g><g transform="translate(42.0 4.199999999999999)"><g clip-path="url(#bg2bgij-i5)"><polygon points="0,0 4.2,0 4.2,1.4 0,1.4 0,0" stroke="none" fill="#FFFFFF"></polygon><polygon points="0,0 4.2,0 4.2,1.4 0,1.4 0,0 0,0" stroke="#FFFFFF" stroke-width="2.8" fill="none" stroke-miterlimit="5"></polygon></g></g><g transform="translate(4.2000000000000455 12.60000000000002)"><g clip-path="url(#bg2bgij-i6)"><polygon points="0,0 48,0 48,18 0,18 0,0" stroke="none" fill="#FFFFFF"></polygon><polygon points="0,0 48,0 48,18 0,18 0,0 0,0" stroke="#FFFFFF" stroke-width="2.8" fill="none" stroke-miterlimit="5"></polygon></g><g transform="translate(20.47058823529412 5.538461538461539)"><g clip-path="url(#bg2bgij-i7)"><polygon points="0,0 7.05882353,0 7.05882353,6.92307692 0,6.92307692 0,0" stroke="none" fill="#FF4E00"></polygon></g></g><g transform="translate(0.0 20.0)"><g clip-path="url(#bg2bgij-i8)"><polygon points="0,0 23,0 23,18 0,18 0,0" stroke="none" fill="#FFFFFF"></polygon><polygon points="0,0 23,0 23,18 0,18 0,0 0,0" stroke="#FFFFFF" stroke-width="2.8" fill="none" stroke-miterlimit="5"></polygon></g><g transform="translate(7.90625 5.538461538461538)"><g clip-path="url(#bg2bgij-i9)"><polygon points="0,0 7.1875,0 7.1875,6.92307692 0,6.92307692 0,0" stroke="none" fill="#FF4E00"></polygon></g></g><g transform="translate(25.0 0.0)"><g clip-path="url(#bg2bgij-i8)"><polygon points="0,0 23,0 23,18 0,18 0,0" stroke="none" fill="#FFFFFF"></polygon><polygon points="0,0 23,0 23,18 0,18 0,0 0,0" stroke="#FFFFFF" stroke-width="2.8" fill="none" stroke-miterlimit="5"></polygon></g><g transform="translate(7.906250000000002 5.538461538461538)"><g clip-path="url(#bg2bgij-i10)"><polygon points="0,0 7.1875,0 7.1875,6.92307692 0,6.92307692 0,0" stroke="none" fill="#FF4E00"></polygon></g></g></g></g></g></g></g></svg>