<?xml version="1.0" encoding="UTF-8"?><svg version="1.1" width="66px" height="66px" viewBox="0 0 66.0 66.0" xmlns="http://www.w3.org/2000/svg" xmlns:xlink="http://www.w3.org/1999/xlink"><defs><clipPath id="s54m5-i0"><path d="M66,0 L66,66 L0,66 L0,0 L66,0 Z"></path></clipPath><clipPath id="s54m5-i1"><path d="M56,0 L56,56 L0,56 L0,0 L56,0 Z"></path></clipPath><clipPath id="s54m5-i2"><path d="M26,0 L26,48 L0,48 L0,0 L26,0 Z"></path></clipPath><clipPath id="s54m5-i3"><path d="M4.29325335,0 L4.293,2.769 L7.15542224,2.76923077 L7.15542224,4.15384615 L4.293,4.153 L4.29325335,6.92307692 L2.8621689,6.92307692 L2.862,4.153 L0,4.15384615 L0,2.76923077 L2.862,2.769 L2.8621689,0 L4.29325335,0 Z"></path></clipPath></defs><g clip-path="url(#s54m5-i0)"><g transform="translate(5.0 5.0)"><g clip-path="url(#s54m5-i1)"><polygon points="0,0 56,0 56,56 0,56 0,0" stroke="none" fill="#FF4E00"></polygon></g><g transform="translate(15.0 4.0)"><g clip-path="url(#s54m5-i2)"><polygon points="0,0 26,0 26,48 0,48 0,0" stroke="none" fill="#FFFFFF"></polygon><polygon points="0,0 26,0 26,48 0,48 0,0 0,0" stroke="#FFFFFF" stroke-width="2.8" fill="none" stroke-miterlimit="5"></polygon></g><g transform="translate(9.424355726249942 20.39999999999997)"><g clip-path="url(#s54m5-i3)"><polygon points="0,0 7.15542224,0 7.15542224,6.92307692 0,6.92307692 0,0" stroke="none" fill="#FF4E00"></polygon></g></g></g></g></g></svg>