<?xml version="1.0" encoding="UTF-8"?><svg version="1.1" width="66px" height="66px" viewBox="0 0 66.0 66.0" xmlns="http://www.w3.org/2000/svg" xmlns:xlink="http://www.w3.org/1999/xlink"><defs><clipPath id="i0"><path d="M66,0 L66,66 L0,66 L0,0 L66,0 Z"></path></clipPath><clipPath id="i1"><path d="M56,0 L56,56 L0,56 L0,0 L56,0 Z"></path></clipPath><clipPath id="i2"><path d="M24,0 L24,5 L0,5 L0,0 L24,0 Z"></path></clipPath><clipPath id="i3"><path d="M22,0 L22,1 L0,1 L0,0 L22,0 Z"></path></clipPath><clipPath id="i4"><path d="M24,0 L24,16 L0,16 L0,0 L24,0 Z M18.0390208,8.57033992 L15.1617391,11.811317 L17.3945195,14.4578055 L22.46635,14.4578055 L22.46635,13.7167422 L18.0390208,8.57033992 Z M8.7012057,6.49386431 L2.82352941,13.1955876 L2.82352941,14.457759 L15.4145415,14.457759 L8.7012057,6.49386431 Z M14.3636098,1.42879937 C13.1519035,1.42879937 12.1539788,2.48813928 12.1539788,3.77390229 C12.1539788,5.05989795 13.1521228,6.11900521 14.3636098,6.11900521 C15.575316,6.11900521 16.5732408,5.05966529 16.5732408,3.77390229 C16.5732408,2.48790662 15.5750968,1.42879937 14.3636098,1.42879937 Z"></path></clipPath></defs><g clip-path="url(#i0)"><g transform="translate(5.0 5.0)"><g clip-path="url(#i1)"><polygon points="0,0 56,0 56,56 0,56 0,0" stroke="none" fill="#FF4E00"></polygon></g><g transform="translate(2.8000000000000114 4.7999999999999545)"><g transform="translate(0.0 24.0)"><g transform="translate(26.0 0.0)"><g transform="translate(0.0 17.0)"><g clip-path="url(#i2)"><polygon points="0,0 24,0 24,5 0,5 0,0" stroke="none" fill="#FFFFFF"></polygon><polygon points="0,0 24,0 24,5 0,5 0,0 0,0" stroke="#FFFFFF" stroke-width="3.87177033" fill="none" stroke-miterlimit="5"></polygon></g><g transform="translate(1.0 1.0)"><g clip-path="url(#i3)"><polygon points="0,0 22,0 22,1 0,1 0,0" stroke="none" fill="#FF4E00"></polygon></g><g transform="translate(0.0 2.0)"><g clip-path="url(#i3)"><polygon points="0,0 22,0 22,1 0,1 0,0" stroke="none" fill="#FF4E00"></polygon></g></g></g></g><g clip-path="url(#i4)"><polygon points="0,0 24,0 24,16 0,16 0,0" stroke="none" fill="#FFFFFF"></polygon></g></g><g transform="translate(0.0 17.0)"><g clip-path="url(#i2)"><polygon points="0,0 24,0 24,5 0,5 0,0" stroke="none" fill="#FFFFFF"></polygon><polygon points="0,0 24,0 24,5 0,5 0,0 0,0" stroke="#FFFFFF" stroke-width="3.87177033" fill="none" stroke-miterlimit="5"></polygon></g><g transform="translate(1.0 1.0)"><g clip-path="url(#i3)"><polygon points="0,0 22,0 22,1 0,1 0,0" stroke="none" fill="#FF4E00"></polygon></g><g transform="translate(0.0 2.0)"><g clip-path="url(#i3)"><polygon points="0,0 22,0 22,1 0,1 0,0" stroke="none" fill="#FF4E00"></polygon></g></g></g></g><g clip-path="url(#i4)"><polygon points="0,0 24,0 24,16 0,16 0,0" stroke="none" fill="#FFFFFF"></polygon></g></g><g transform="translate(26.0 0.0)"><g transform="translate(0.0 17.0)"><g clip-path="url(#i2)"><polygon points="0,0 24,0 24,5 0,5 0,0" stroke="none" fill="#FFFFFF"></polygon><polygon points="0,0 24,0 24,5 0,5 0,0 0,0" stroke="#FFFFFF" stroke-width="3.87177033" fill="none" stroke-miterlimit="5"></polygon></g><g transform="translate(1.0 1.0)"><g clip-path="url(#i3)"><polygon points="0,0 22,0 22,1 0,1 0,0" stroke="none" fill="#FF4E00"></polygon></g><g transform="translate(0.0 2.0)"><g clip-path="url(#i3)"><polygon points="0,0 22,0 22,1 0,1 0,0" stroke="none" fill="#FF4E00"></polygon></g></g></g></g><g clip-path="url(#i4)"><polygon points="0,0 24,0 24,16 0,16 0,0" stroke="none" fill="#FFFFFF"></polygon></g></g><g transform="translate(0.0 17.0)"><g clip-path="url(#i2)"><polygon points="0,0 24,0 24,5 0,5 0,0" stroke="none" fill="#FFFFFF"></polygon><polygon points="0,0 24,0 24,5 0,5 0,0 0,0" stroke="#FFFFFF" stroke-width="3.87177033" fill="none" stroke-miterlimit="5"></polygon></g><g transform="translate(1.0 1.0)"><g clip-path="url(#i3)"><polygon points="0,0 22,0 22,1 0,1 0,0" stroke="none" fill="#FF4E00"></polygon></g><g transform="translate(0.0 2.0)"><g clip-path="url(#i3)"><polygon points="0,0 22,0 22,1 0,1 0,0" stroke="none" fill="#FF4E00"></polygon></g></g></g></g><g clip-path="url(#i4)"><polygon points="0,0 24,0 24,16 0,16 0,0" stroke="none" fill="#FFFFFF"></polygon></g></g></g></g></svg>