<?xml version="1.0" encoding="UTF-8"?><svg version="1.1" width="66px" height="66px" viewBox="0 0 66.0 66.0" xmlns="http://www.w3.org/2000/svg" xmlns:xlink="http://www.w3.org/1999/xlink"><defs><clipPath id=" fvvdgrgdv"><path d="M66,0 L66,66 L0,66 L0,0 L66,0 Z"></path></clipPath><clipPath id="fgdvvrvcv4"><path d="M56,0 L56,56 L0,56 L0,0 L56,0 Z"></path></clipPath><clipPath id="i2"><path d="M48,0 L48,20 L0,20 L0,0 L48,0 Z"></path></clipPath><clipPath id="ff4ggd5"><path d="M48,0 L48,4 L0,4 L0,0 L48,0 Z"></path></clipPath></defs><g clip-path="url(# fvvdgrgdv)"><g transform="translate(5.0 5.0)"><g clip-path="url(#i1)"><polygon points="0,0 56,0 56,56 0,56 0,0" stroke="none" fill="#FF4E00"></polygon></g><g transform="translate(4.2000000000000455 4.2000000000000455)"><g transform="translate(0.0 12.0)"><g clip-path="url(#i2)"><polygon points="0,0 48,0 48,20 0,20 0,0" stroke="none" fill="#FFFFFF"></polygon><polygon points="0,0 48,0 48,20 0,20 0,0 0,0" stroke="#FFFFFF" stroke-width="2.8" fill="none" stroke-miterlimit="5"></polygon></g></g><g transform="translate(0.0 40.0)"><g clip-path="url(#ff4ggd5)"><polygon points="0,0 48,0 48,4 0,4 0,0" stroke="none" fill="#FFFFFF"></polygon><polygon points="0,0 48,0 48,4 0,4 0,0 0,0" stroke="#FFFFFF" stroke-width="2.8" fill="none" stroke-miterlimit="5"></polygon></g></g><g transform="translate(0.0 34.0)"><g clip-path="url(#ff4ggd5)"><polygon points="0,0 48,0 48,4 0,4 0,0" stroke="none" fill="#FFFFFF"></polygon><polygon points="0,0 48,0 48,4 0,4 0,0 0,0" stroke="#FFFFFF" stroke-width="2.8" fill="none" stroke-miterlimit="5"></polygon></g></g><g transform="translate(0.0 6.0)"><g clip-path="url(#ff4ggd5)"><polygon points="0,0 48,0 48,4 0,4 0,0" stroke="none" fill="#FFFFFF"></polygon><polygon points="0,0 48,0 48,4 0,4 0,0 0,0" stroke="#FFFFFF" stroke-width="2.8" fill="none" stroke-miterlimit="5"></polygon></g></g><g clip-path="url(#ff4ggd5)"><polygon points="0,0 48,0 48,4 0,4 0,0" stroke="none" fill="#FFFFFF"></polygon><polygon points="0,0 48,0 48,4 0,4 0,0 0,0" stroke="#FFFFFF" stroke-width="2.8" fill="none" stroke-miterlimit="5"></polygon></g></g></g></g></svg>