<svg width="700pt" height="700pt" version="1.1" viewBox="0 0 700 590" xmlns="http://www.w3.org/2000/svg" xmlns:xlink="http://www.w3.org/1999/xlink">
 <g>
  <path fill="#FF4E00" d="m348.49 279.05c-84 0-152.27 71.062-152.27 158.76-0.011718 10.637 1.0039 21.25 3.0234 31.695h298.54c1.9961-10.449 3.0078-21.059 3.0234-31.695 0-87.695-68.207-158.76-152.32-158.76z"/>
  <path fill="#FF4E00" d="m423.98 134.04c24.023 41.66 9.7266 94.91-31.938 118.93-41.664 24.027-94.91 9.7266-118.94-31.934-24.023-41.664-9.7266-94.914 31.938-118.94 41.66-24.023 94.91-9.7266 118.94 31.938"/>
  <path fill="#FF4E00" d="m442.62 217.11c14.398 10.461 32.312 14.887 49.93 12.332 17.613-2.5547 33.535-11.887 44.367-26.012 10.832-14.121 15.719-31.918 13.621-49.594-2.0977-17.676-11.02-33.832-24.855-45.023-13.84-11.195-31.504-16.543-49.227-14.898-17.723 1.6406-34.105 10.137-45.652 23.684 21.203 28.875 25.688 66.762 11.816 99.789z"/>
  <path fill="#FF4E00" d="m482.61 242.43c-29.391 0.054688-57.676 11.219-79.184 31.246 3.5273 1.2891 7 2.6328 10.414 4.1445 19.996 8.9141 38.051 21.66 53.145 37.52 20.664 21.422 35.426 47.836 42.84 76.664h89.602c1.6445-8.2266 2.5078-16.59 2.5742-24.977 0-68.711-53.48-124.6-119.39-124.6z"/>
  <path fill="#FF4E00" d="m283.19 277.93c4.1445-1.8477 8.2891-3.5273 12.543-4.9844-21.414-19.59-49.375-30.477-78.398-30.52-65.855 0-119.34 55.887-119.34 124.6 0.011719 8.3828 0.81641 16.746 2.4062 24.977h86.746c7.4297-28.84 22.188-55.266 42.84-76.719 15.133-15.797 33.203-28.484 53.199-37.352z"/>
  <path fill="#FF4E00" d="m217.39 230.05c13.41 0.074219 26.543-3.8242 37.746-11.199-7.3633-16.734-10.086-35.137-7.8906-53.285 2.1992-18.148 9.2383-35.371 20.379-49.867-15.605-16.934-38.699-24.863-61.414-21.082-22.715 3.7852-41.996 18.762-51.27 39.84-9.2773 21.078-7.3008 45.414 5.2539 64.719 12.559 19.305 34 30.977 57.027 31.043z"/>
  <use x="70" y="644" xlink:href="#w"/>
  <use x="90.550781" y="644" xlink:href="#b"/>
  <use x="104.359375" y="644" xlink:href="#a"/>
  <use x="123.347656" y="644" xlink:href="#d"/>
  <use x="142.242188" y="644" xlink:href="#c"/>
  <use x="155.628906" y="644" xlink:href="#a"/>
  <use x="174.617188" y="644" xlink:href="#l"/>
  <use x="204.410156" y="644" xlink:href="#k"/>
  <use x="224.453125" y="644" xlink:href="#j"/>
  <use x="252.453125" y="644" xlink:href="#i"/>
  <use x="274.121094" y="644" xlink:href="#h"/>
  <use x="294.054688" y="644" xlink:href="#g"/>
  <use x="313.988281" y="644" xlink:href="#d"/>
  <use x="332.882812" y="644" xlink:href="#b"/>
  <use x="356.4375" y="644" xlink:href="#v"/>
  <use x="366.859375" y="644" xlink:href="#u"/>
  <use x="383.523438" y="644" xlink:href="#f"/>
  <use x="412.699219" y="644" xlink:href="#d"/>
  <use x="431.59375" y="644" xlink:href="#t"/>
  <use x="441.191406" y="644" xlink:href="#s"/>
  <use x="70" y="672" xlink:href="#r"/>
  <use x="82.183594" y="672" xlink:href="#b"/>
  <use x="95.992188" y="672" xlink:href="#e"/>
  <use x="115.226562" y="672" xlink:href="#f"/>
  <use x="154.152344" y="672" xlink:href="#c"/>
  <use x="167.535156" y="672" xlink:href="#g"/>
  <use x="187.46875" y="672" xlink:href="#a"/>
  <use x="216.207031" y="672" xlink:href="#q"/>
  <use x="239.640625" y="672" xlink:href="#e"/>
  <use x="258.878906" y="672" xlink:href="#p"/>
  <use x="278.8125" y="672" xlink:href="#h"/>
  <use x="308.492188" y="672" xlink:href="#o"/>
  <use x="329.015625" y="672" xlink:href="#b"/>
  <use x="342.820312" y="672" xlink:href="#e"/>
  <use x="362.058594" y="672" xlink:href="#n"/>
  <use x="371.65625" y="672" xlink:href="#a"/>
  <use x="390.648438" y="672" xlink:href="#m"/>
  <use x="407.242188" y="672" xlink:href="#c"/>
 </g>
</svg>
