<svg width="700pt" height="700pt" version="1.1" viewBox="0 0 700 590" xmlns="http://www.w3.org/2000/svg" xmlns:xlink="http://www.w3.org/1999/xlink">
 <g>
  <path fill="#FF4E00" d="m603.75 34.984h-507.5c-14.473 0-26.25 11.777-26.25 26.25v455.04c0 4.8398 3.9102 8.75 8.75 8.75h542.5c4.8398 0 8.75-3.9102 8.75-8.75v-455.04c0-14.473-11.777-26.25-26.25-26.25zm-516.25 52.5h525v420.04l-525-0.003906zm8.75-35h8.9258c-4.8281 0-8.6992 3.9102-8.6992 8.75s3.9531 8.75 8.793 8.75c4.8281 0 8.75-3.9102 8.75-8.75s-3.9219-8.75-8.75-8.75h26.145c-4.8281 0-8.6992 3.9102-8.6992 8.75s3.9531 8.75 8.793 8.75c4.8281 0 8.75-3.9102 8.75-8.75s-3.9219-8.75-8.75-8.75h26.18c-4.8281 0-8.6992 3.9102-8.6992 8.75s3.9531 8.75 8.793 8.75c4.8281 0 8.75-3.9102 8.75-8.75s-3.9219-8.75-8.75-8.75h445.97c4.8281 0 8.75 3.9219 8.75 8.75v8.75h-525v-8.75c0-4.832 3.9219-8.75 8.75-8.75z"/>
  <path fill="#FF4E00" d="m586.25 104.98h-472.49c-4.8398 0-8.75 3.9102-8.75 8.75v297.52c0 4.8398 3.9102 8.75 8.75 8.75h472.49c4.8398 0 8.75-3.9102 8.75-8.75v-297.52c0-4.8398-3.9102-8.75-8.75-8.75zm-419.99 280c0-9.5898 7.7695-17.379 17.324-17.473 0.0625 0 0.11328 0.035156 0.17578 0.035156h13.93l6.1328 6.125c0.085938 0.085937 0.19141 0.11328 0.28125 0.18359 0.67188 0.61328 1.418 1.1094 2.2383 1.4883 0.24609 0.11328 0.48828 0.22656 0.74219 0.31641 0.92578 0.33203 1.8984 0.55859 2.9062 0.57031h0.015625 0.007813c0.015625 0 0.027343-0.007813 0.042969-0.007813 1.2266-0.007812 2.4141-0.32422 3.5508-0.84766 0.10547-0.042969 0.21094-0.015625 0.30469-0.070312l13.59-6.7812 13.59 6.7812c0.097656 0.050781 0.20312 0.027343 0.30469 0.070312 1.1367 0.52344 2.3359 0.83984 3.5508 0.84766 0.015626 0 0.027344 0.007813 0.042969 0.007813h0.007813 0.015625c1.0078-0.007813 1.9766-0.23438 2.9062-0.57031 0.25391-0.085937 0.5-0.20312 0.74219-0.31641 0.82422-0.375 1.5664-0.875 2.2383-1.4883 0.085937-0.078125 0.19141-0.10547 0.28125-0.18359l6.1328-6.125h13.93c0.0625 0 0.11328-0.035156 0.17578-0.035156 9.5625 0.097656 17.324 7.8828 17.324 17.473l0.015624 17.516h-122.5zm52.5-192.46h35v17.5c0 4.8398 3.9102 8.75 8.75 8.75 9.6602 0 17.516 7.8477 17.516 17.508v5.0742l-2.7383-2.5977c-0.035156-0.035157-0.085937-0.042969-0.12109-0.078125-2.7383-2.5742-6.8516-3.2812-10.273-1.3203-0.14844 0.085938-15.078 8.4609-35.98 8.4609-21.672 0-43.629-8.8125-43.855-8.8984-3.5352-1.4688-7.3867-0.35156-9.7734 2.3555l-2.2734 2.1445v-5.1445c0-24.129 19.629-43.754 43.75-43.754zm-43.75 72.973 10.965-10.359c8.7148 2.9844 26.555 8.1797 44.941 8.1797 17.344 0 31.078-4.6367 38.551-7.8398l10.551 10.02-0.007813 14.535c0 28.953-23.547 52.5-52.5 52.5-28.953 0-52.5-23.547-52.5-52.5zm52.5 84.527c6.0469 0 11.891-0.85938 17.5-2.3086v7.4023l-1.7227 1.7148-11.855-5.9219c-0.18359-0.097656-0.40234-0.078124-0.58594-0.16797-0.55859-0.22656-1.1289-0.35156-1.7227-0.46484-0.54297-0.10547-1.0586-0.21094-1.6016-0.20312-0.54297-0.007813-1.0586 0.10547-1.6016 0.20312-0.59375 0.11328-1.1719 0.22656-1.7227 0.46484-0.19141 0.085937-0.40234 0.070312-0.58594 0.16797l-11.855 5.9219-1.7227-1.7148v-7.4023c5.5859 1.4492 11.43 2.3086 17.477 2.3086zm349.99 52.473h-271.24v-17.516c0-19.293-15.699-34.992-35-34.992-0.097656 0-0.16797 0.050781-0.25391 0.050781h-8.4961v-9.4844c20.887-12.137 35-34.695 35-60.531l0.015626-43.742c0-16.266-11.199-29.855-26.266-33.766v-18.742c0-4.8398-3.9102-8.75-8.75-8.75h-43.75c-33.766 0-61.25 27.484-61.25 61.25v43.75c0 25.84 14.113 48.395 35 60.531v9.4844h-8.4961c-0.097657 0-0.16797-0.050781-0.25391-0.050781-19.301 0-35 15.699-35 34.992v17.516h-26.25v-280.02h454.99z"/>
  <path fill="#FF4E00" d="m358.64 253.71h175.12c4.8398 0 8.75-3.9102 8.75-8.75 0-4.8398-3.9102-8.75-8.75-8.75h-175.12c-4.8398 0-8.75 3.9102-8.75 8.75 0 4.8398 3.918 8.75 8.75 8.75z"/>
  <path fill="#FF4E00" d="m358.64 279.95h175.12c4.8398 0 8.75-3.9102 8.75-8.75 0-4.8398-3.9102-8.75-8.75-8.75h-175.12c-4.8398 0-8.75 3.9102-8.75 8.75 0 4.8359 3.918 8.75 8.75 8.75z"/>
  <path fill="#FF4E00" d="m358.64 306.21h96.293c4.8398 0 8.75-3.9102 8.75-8.75 0-4.8398-3.9102-8.75-8.75-8.75h-96.293c-4.8398 0-8.75 3.9102-8.75 8.75 0 4.8398 3.918 8.75 8.75 8.75z"/>
  <path fill="#FF4E00" d="m376.25 209.99c14.473 0 26.25-11.777 26.25-26.25 0-14.473-11.777-26.25-26.25-26.25s-26.25 11.777-26.25 26.25c0 14.473 11.777 26.25 26.25 26.25zm0-35c4.8281 0 8.75 3.9219 8.75 8.75 0 4.8281-3.9219 8.75-8.75 8.75s-8.75-3.9219-8.75-8.75c0-4.832 3.9219-8.75 8.75-8.75z"/>
  <path fill="#FF4E00" d="m454.98 332.52h-96.234c-4.8398 0-8.75 3.9102-8.75 8.75v26.285c0 4.8398 3.9102 8.75 8.75 8.75h96.234c4.8398 0 8.75-3.9102 8.75-8.75v-26.285c0-4.8359-3.9141-8.75-8.75-8.75zm-8.75 26.285h-78.734v-8.7852h78.734z"/>
  <path fill="#FF4E00" d="m329.95 440.13c-3.4219-3.4219-8.9531-3.4219-12.371 0l-17.5 17.5c-3.4219 3.4219-3.4219 8.9531 0 12.371l17.5 17.5c1.707 1.707 3.9453 2.5625 6.1875 2.5625 2.2383 0 4.4805-0.85938 6.1875-2.5625 3.4219-3.4219 3.4219-8.9531 0-12.371l-11.312-11.312 11.312-11.312c3.418-3.4219 3.418-8.9609-0.003906-12.375z"/>
  <path fill="#FF4E00" d="m382.42 440.13c-3.4219-3.4219-8.9531-3.4219-12.371 0-3.4219 3.4219-3.4219 8.9531 0 12.371l11.312 11.312-11.312 11.312c-3.4219 3.4219-3.4219 8.9531 0 12.371 1.707 1.707 3.9453 2.5625 6.1875 2.5625 2.2383 0 4.4805-0.85938 6.1875-2.5625l17.5-17.5c3.4219-3.4219 3.4219-8.9531 0-12.371z"/>
  <use x="70" y="691.25" xlink:href="#l"/>
  <use x="102.109375" y="691.25" xlink:href="#d"/>
  <use x="123.683594" y="691.25" xlink:href="#c"/>
  <use x="153.355469" y="691.25" xlink:href="#a"/>
  <use x="182.878906" y="691.25" xlink:href="#b"/>
  <use x="203.792969" y="691.25" xlink:href="#c"/>
  <use x="233.464844" y="691.25" xlink:href="#i"/>
  <use x="280.011719" y="691.25" xlink:href="#h"/>
  <use x="311.328125" y="691.25" xlink:href="#g"/>
  <use x="355.078125" y="691.25" xlink:href="#f"/>
  <use x="370.078125" y="691.25" xlink:href="#a"/>
  <use x="399.597656" y="691.25" xlink:href="#e"/>
  <use x="425.640625" y="691.25" xlink:href="#b"/>
  <use x="446.554688" y="691.25" xlink:href="#e"/>
  <use x="472.59375" y="691.25" xlink:href="#k"/>
  <use x="503.910156" y="691.25" xlink:href="#a"/>
  <use x="533.433594" y="691.25" xlink:href="#d"/>
  <use x="555.007812" y="691.25" xlink:href="#j"/>
 </g>
</svg>
