<svg width="700pt" height="700pt" version="1.1" viewBox="0 0 700 700" xmlns="http://www.w3.org/2000/svg">
 <path fill="#FF4E00" d="m150.32 420h77.176v77.176zm112.18-297.5v-55.477c-0.44141-4.2266-2.5234-8.1094-5.793-10.824-3.2695-2.7148-7.4727-4.043-11.707-3.6992-4.2344-0.34375-8.4375 0.98438-11.707 3.6992-3.2695 2.7148-5.3516 6.5977-5.793 10.824v55.477c-6.2539 0-12.031 3.3359-15.156 8.75s-3.125 12.086 0 17.5 8.9023 8.75 15.156 8.75h35c6.2539 0 12.031-3.3359 15.156-8.75s3.125-12.086 0-17.5-8.9023-8.75-15.156-8.75zm140 0v-55.477c0-6.25-3.3359-12.027-8.75-15.152-5.4141-3.1289-12.086-3.1289-17.5 0-5.4141 3.125-8.75 8.9023-8.75 15.152v55.477c-6.2539 0-12.031 3.3359-15.156 8.75s-3.125 12.086 0 17.5 8.9023 8.75 15.156 8.75h35c6.2539 0 12.031-3.3359 15.156-8.75s3.125-12.086 0-17.5-8.9023-8.75-15.156-8.75zm-262.5 105v157.5h105c4.6406 0 9.0938 1.8438 12.375 5.125s5.125 7.7344 5.125 12.375v105h210c4.6406 0 9.0938-1.8438 12.375-5.125s5.125-7.7344 5.125-12.375v-262.5zm367.5-41.125v268.62h35c5.3555 0.12109 10.469-2.2188 13.879-6.3477 3.4141-4.1289 4.7461-9.5898 3.6211-14.828zm-35-98.875h-52.5v22.227c8.9375 5.1836 15.125 14.047 16.91 24.223s-1.0117 20.617-7.6484 28.535-16.43 12.496-26.762 12.516h-35c-10.332-0.019531-20.125-4.5977-26.762-12.516s-9.4336-18.359-7.6484-28.535 7.9727-19.039 16.91-24.223v-22.227h-70v22.227c8.9375 5.1836 15.125 14.047 16.91 24.223s-1.0117 20.617-7.6484 28.535-16.43 12.496-26.762 12.516h-35c-10.332-0.019531-20.125-4.5977-26.762-12.516s-9.4336-18.359-7.6484-28.535 7.9727-19.039 16.91-24.223v-22.227h-52.5c-4.6406 0-9.0938 1.8438-12.375 5.125s-5.125 7.7344-5.125 12.375v87.5h350v-87.5c0-4.6406-1.8438-9.0938-5.125-12.375s-7.7344-5.125-12.375-5.125z"/>
</svg>
