<svg width="700pt" height="700pt" version="1.1" viewBox="0 0 700 590" xmlns="http://www.w3.org/2000/svg" xmlns:xlink="http://www.w3.org/1999/xlink">
 <g>
  <path fill="#FF4E00" d="m401.61 206.67c25.02 0 46.148 38.57 46.148 84.223 0 40.852-15.953 62.434-46.148 62.434-30.203 0-46.164-21.582-46.164-62.434 0-45.652 21.145-84.223 46.164-84.223z"/>
  <path fill="#FF4E00" d="m303.85 141.79c0-45.652 21.133-84.223 46.152-84.223s46.16 38.57 46.16 84.223c0 40.852-15.961 62.445-46.16 62.445s-46.152-21.594-46.152-62.445z"/>
  <path fill="#FF4E00" d="m252.24 290.89c0-45.656 21.133-84.223 46.152-84.223 25.023 0 46.16 38.57 46.16 84.223 0 40.852-15.961 62.434-46.16 62.434s-46.152-21.582-46.152-62.434z"/>
  <path fill="#FF4E00" d="m246.79 502.44c-30.199 0-46.152-21.59-46.152-62.434 0-45.664 21.133-84.223 46.152-84.223 25.023 0 46.16 38.559 46.16 84.223 0 40.844-15.965 62.434-46.16 62.434z"/>
  <path fill="#FF4E00" d="m350 502.44c-30.199 0-46.16-21.59-46.16-62.434 0-45.664 21.141-84.223 46.16-84.223s46.16 38.559 46.16 84.223c0 40.844-15.961 62.434-46.16 62.434z"/>
  <path fill="#FF4E00" d="m453.2 502.44c-30.191 0-46.152-21.59-46.152-62.434 0-45.664 21.133-84.223 46.152-84.223 25.031 0 46.164 38.559 46.164 84.223 0 40.844-15.961 62.434-46.164 62.434z"/>
  <use x="70" y="647.5" xlink:href="#u"/>
  <use x="91.40625" y="647.5" xlink:href="#c"/>
  <use x="105.789062" y="647.5" xlink:href="#b"/>
  <use x="125.570312" y="647.5" xlink:href="#f"/>
  <use x="145.253906" y="647.5" xlink:href="#d"/>
  <use x="159.195312" y="647.5" xlink:href="#b"/>
  <use x="178.976562" y="647.5" xlink:href="#m"/>
  <use x="210.007812" y="647.5" xlink:href="#l"/>
  <use x="230.886719" y="647.5" xlink:href="#k"/>
  <use x="260.054688" y="647.5" xlink:href="#j"/>
  <use x="279.976562" y="647.5" xlink:href="#f"/>
  <use x="299.660156" y="647.5" xlink:href="#e"/>
  <use x="320.421875" y="647.5" xlink:href="#i"/>
  <use x="350.816406" y="647.5" xlink:href="#h"/>
  <use x="360.8125" y="647.5" xlink:href="#e"/>
  <use x="381.578125" y="647.5" xlink:href="#a"/>
  <use x="401.613281" y="647.5" xlink:href="#c"/>
  <use x="416" y="647.5" xlink:href="#h"/>
  <use x="425.996094" y="647.5" xlink:href="#t"/>
  <use x="442.972656" y="647.5" xlink:href="#a"/>
  <use x="463.007812" y="647.5" xlink:href="#g"/>
  <use x="70" y="676.667969" xlink:href="#s"/>
  <use x="82.6875" y="676.667969" xlink:href="#c"/>
  <use x="97.074219" y="676.667969" xlink:href="#a"/>
  <use x="117.109375" y="676.667969" xlink:href="#i"/>
  <use x="157.65625" y="676.667969" xlink:href="#d"/>
  <use x="171.597656" y="676.667969" xlink:href="#e"/>
  <use x="192.363281" y="676.667969" xlink:href="#b"/>
  <use x="222.300781" y="676.667969" xlink:href="#r"/>
  <use x="246.710938" y="676.667969" xlink:href="#a"/>
  <use x="266.746094" y="676.667969" xlink:href="#q"/>
  <use x="287.511719" y="676.667969" xlink:href="#g"/>
  <use x="318.429688" y="676.667969" xlink:href="#p"/>
  <use x="339.804688" y="676.667969" xlink:href="#c"/>
  <use x="354.191406" y="676.667969" xlink:href="#a"/>
  <use x="374.226562" y="676.667969" xlink:href="#o"/>
  <use x="384.226562" y="676.667969" xlink:href="#b"/>
  <use x="404.007812" y="676.667969" xlink:href="#n"/>
  <use x="421.296875" y="676.667969" xlink:href="#d"/>
 </g>
</svg>
