<?xml version="1.0" encoding="UTF-8"?><svg version="1.1" width="66px" height="66px" viewBox="0 0 66.0 66.0" xmlns="http://www.w3.org/2000/svg" xmlns:xlink="http://www.w3.org/1999/xlink"><defs><clipPath id="i0"><path d="M66,0 L66,66 L0,66 L0,0 L66,0 Z"></path></clipPath><clipPath id="i1"><path d="M56,0 L56,56 L0,56 L0,0 L56,0 Z"></path></clipPath><clipPath id="i2"><path d="M23,0 L23,29 L0,29 L0,0 L23,0 Z"></path></clipPath><clipPath id="i3"><path d="M4.78764341,3.88752978 L10.2559707,9.99996429 L0,9.99996429 L0,9.03122467 L4.78764341,3.88752978 Z M12.3937324,5.4812627 L16,9.43122038 L16,10 L11.8687559,10 L10.0500513,7.96877176 L12.3937324,5.4812627 Z M9.3999375,0 C10.3867506,0 11.1997857,0.812884148 11.1997857,1.79990929 C11.1997857,2.78675586 10.3869292,3.59981857 9.3999375,3.59981857 C8.41312441,3.59981857 7.60008928,2.78693443 7.60008928,1.79990929 C7.60008928,0.813062717 8.41294585,0 9.3999375,0 Z"></path></clipPath><clipPath id="i4"><path d="M4.78764341,3.88752978 L10.2559707,9.99996429 L0,9.99996429 L0,9.03122467 L4.78764341,3.88752978 Z M12.3937324,5.4812627 L16,9.43122038 L16,10 L11.8687559,10 L10.0500513,7.96877176 L12.3937324,5.4812627 Z M9.3999375,0 C10.3867506,0 11.1997857,0.812884148 11.1997857,1.79990929 C11.1997857,2.78675586 10.3869292,3.59981857 9.3999375,3.59981857 C8.41312441,3.59981857 7.60008928,2.78693443 7.60008928,1.79990929 C7.60008928,0.813062717 8.41294585,0 9.3999375,0 Z"></path></clipPath><clipPath id="i5"><path d="M6,0 L6,6 L0,6 L0,0 L6,0 Z"></path></clipPath><clipPath id="i6"><path d="M2.94118093,0.187147349 C2.94118093,0.020750462 3.14236381,-0.0625802773 3.2600214,0.0550850924 L3.92974125,0.724804937 C4.00268288,0.797746571 4.00268288,0.915995598 3.92974125,0.988937232 L3.2600214,1.65865708 C3.14235603,1.77631466 2.94118093,1.69298393 2.94118093,1.52658704 L2.94118093,1.16815124 L1.04326654,1.16815124 L1.04326654,1.52657926 C1.04326654,1.69297614 0.842083658,1.77630688 0.72442607,1.65864929 L0.0547062257,0.98892945 C-0.0182354086,0.915987816 -0.0182354086,0.797738789 0.0547062257,0.724797155 L0.72442607,0.0550773103 C0.84209144,-0.0625802773 1.04326654,0.020750462 1.04326654,0.187147349 L1.04326654,0.545583147 L2.94118093,0.545583147 Z"></path></clipPath><clipPath id="i7"><path d="M4,0 L4,4 L0,4 L0,0 L4,0 Z"></path></clipPath></defs><g clip-path="url(#i0)"><g transform="translate(5.0 5.0)"><g clip-path="url(#i1)"><polygon points="0,0 56,0 56,56 0,56 0,0" stroke="none" fill="#FF4E00"></polygon></g><g transform="translate(4.0 14.0)"><g clip-path="url(#i2)"><polygon points="0,0 23,0 23,29 0,29 0,0" stroke="none" fill="#FFFFFF"></polygon></g><g transform="translate(4.00000000000001 9.000000000000004)"><g clip-path="url(#i3)"><polygon points="0,0 16,0 16,10 0,10 0,0" stroke="none" fill="#FF4E00"></polygon></g></g><g transform="translate(25.0 0.0)"><g clip-path="url(#i2)"><polygon points="0,0 23,0 23,29 0,29 0,0" stroke="none" fill="#FFFFFF"></polygon></g><g transform="translate(4.00000000000001 9.000000000000004)"><g clip-path="url(#i4)"><polygon points="0,0 16,0 16,10 0,10 0,0" stroke="none" fill="#FF4E00"></polygon></g></g></g></g><g transform="translate(28.0 23.757359312880716) rotate(44.99999999999999)"><g clip-path="url(#i5)"><polygon points="-5.68434189e-14,-2.27373675e-13 6,-2.27373675e-13 6,6 -5.68434189e-14,6 -5.68434189e-14,-2.27373675e-13" stroke="none" fill="#FFFFFF"></polygon><polygon points="0,0 6,0 6,6 0,6 0,0 0,0" stroke="#FF4E00" stroke-width="2" fill="none" stroke-miterlimit="5"></polygon></g></g></g><g transform="translate(31.0 31.0)"><g transform="translate(0.007776264591439874 1.1431328064355273)"><g clip-path="url(#i6)"><g transform="translate(-0.007776264591439874 -1.1431328064355273)"><g clip-path="url(#i7)"><polygon points="0.00777626459,1.14313281 3.99222374,1.14313281 3.99222374,2.85686719 0.00777626459,2.85686719 0.00777626459,1.14313281" stroke="none" fill="#FF4E00"></polygon></g></g></g></g></g></g></svg>