<?xml version="1.0" encoding="UTF-8"?><svg version="1.1" width="66px" height="66px" viewBox="0 0 66.0 66.0" xmlns="http://www.w3.org/2000/svg" xmlns:xlink="http://www.w3.org/1999/xlink"><defs><clipPath id="njfu8-i0"><path d="M66,0 L66,66 L0,66 L0,0 L66,0 Z"></path></clipPath><clipPath id="njfu8-i1"><path d="M56,0 L56,56 L0,56 L0,0 L56,0 Z"></path></clipPath><clipPath id="njfu8-i2"><path d="M4.66815238,4 L10,10 L0,10 L0,9.04907975 L4.66815238,4 Z M12.3633963,5 L16,9.37064319 L16,10 L11.8340036,10 L10,7.75243823 L12.3633963,5 Z M12,0 C13.0965515,0 14,0.903250129 14,2 C14,3.09655145 13.0967499,4 12,4 C10.9034485,4 10,3.09674987 10,2 C10,0.90344855 10.9032501,0 12,0 Z"></path></clipPath><clipPath id="njfu8-i3"><path d="M26,0 L26,26 L0,26 L0,0 L26,0 Z"></path></clipPath><clipPath id="njfu8-i4"><path d="M8.78752784,0.251224944 L15.714922,7.17505568 C16.0498886,7.51002227 16.0498886,8.05167038 15.714922,8.3830735 L8.78752784,15.3104677 C8.45256125,15.6454343 7.91091314,15.6454343 7.57951002,15.3104677 L6.78841871,14.5193764 C6.44988864,14.1808463 6.45701559,13.6285078 6.80267261,13.2971047 L11.0966592,9.20623608 L0.855233853,9.20623608 C0.381291759,9.20623608 0,8.82494432 0,8.35100223 L0,7.21069042 C0,6.73674833 0.381291759,6.35545657 0.855233853,6.35545657 L11.0966592,6.35545657 L6.80267261,2.26458797 C6.45345212,1.93318486 6.44632517,1.38084633 6.78841871,1.04231626 L7.57951002,0.251224944 C7.91447661,-0.0837416481 8.45612472,-0.0837416481 8.78752784,0.251224944 Z"></path></clipPath><clipPath id="njfu8-i5"><path d="M16,0 L16,16 L0,16 L0,0 L16,0 Z"></path></clipPath></defs><g clip-path="url(#njfu8-i0)"><g transform="translate(5.0 5.0)"><g clip-path="url(#njfu8-i1)"><polygon points="0,0 56,0 56,56 0,56 0,0" stroke="none" fill="#FF4E00"></polygon></g><g transform="translate(7.0 9.594408408978474)"><g transform="translate(0.0 6.405591591021562)"><g clip-path="url(#njfu8-i2)"><polygon points="0,0 16,0 16,10 0,10 0,0" stroke="none" fill="#FF4E00"></polygon></g></g><g transform="translate(2.6152236891497864 0.0)"><g transform="translate(18.384776310850214 3.552713678800501e-14) rotate(44.99999999999999)"><g clip-path="url(#njfu8-i3)"><polygon points="0,0 26,0 26,26 0,26 0,0" stroke="none" fill="#FFFFFF"></polygon></g></g></g></g></g><g transform="translate(25.0 25.0)"><g transform="translate(0.0 0.21915367483296055)"><g clip-path="url(#njfu8-i4)"><g transform="translate(0.0 -0.21915367483296055)"><g clip-path="url(#njfu8-i5)"><polygon points="0,0.219153675 15.966147,0.219153675 15.966147,15.7808463 0,15.7808463 0,0.219153675" stroke="none" fill="#FF4E00"></polygon></g></g></g></g></g></g></svg>