<?xml version="1.0" encoding="UTF-8"?><svg version="1.1" width="66px" height="66px" viewBox="0 0 66.0 66.0" xmlns="http://www.w3.org/2000/svg" xmlns:xlink="http://www.w3.org/1999/xlink"><defs><clipPath id="i0"><path d="M66,0 L66,66 L0,66 L0,0 L66,0 Z"></path></clipPath><clipPath id="i1"><path d="M56,0 L56,56 L0,56 L0,0 L56,0 Z"></path></clipPath><clipPath id="i2"><path d="M5.19079159,0 C5.87467796,0.376530343 6.48807484,0.707840871 7.09649599,1.05121001 C8.24920665,1.70177245 9.40025873,2.35595247 10.5474408,3.01917646 C10.6826148,3.097256 10.7970566,3.23140813 10.9048641,3.35772216 C11.0007851,3.46986729 11.081226,3.60190916 11.1564148,3.73425249 C11.9728539,5.16981018 13.9618007,7.24359421 14.0979986,7.38490683 L14.251988,7.53860042 C14.522634,7.80716374 15.0975381,8.3725245 15.3664348,8.5983975 C15.4479815,8.66683015 15.6077577,8.69185177 15.7020201,8.65024956 C16.1443072,8.45429701 16.6109201,8.04973037 17.0407678,7.81971223 C17.1582503,7.75700743 17.2768385,7.64456081 17.3440109,7.51945265 C18.0671502,6.16979184 18.9625051,4.98653996 20.0002211,3.94135926 C20.160101,3.78018829 20.2277053,3.62594161 20.1424781,3.42853356 L20.0964186,3.34114155 C19.951846,3.10750582 19.9803182,2.8958771 20.1428587,2.67610879 C20.3264079,2.42890712 20.4853548,2.15819114 20.6313095,1.93359938 C20.8624044,2.05931047 21.064198,2.25827767 21.2588042,2.24953517 C21.4589391,2.24079267 21.6521633,2.02886246 21.880494,1.88566637 C21.9117306,2.27455679 21.9388206,2.61611716 21.9667399,2.96672146 L22.0650056,2.98844932 C22.0781411,2.99013529 22.0897511,2.98963285 22.099979,2.98511087 C22.5676976,2.77951142 22.7927111,3.06469773 22.931755,3.51689591 C23.0649942,3.95130762 23.3596677,4.12193707 23.7209611,4.28502988 C24.1707117,4.48791613 24.5756808,4.81982957 25,5.09597191 C24.9919835,5.12672141 24.9842435,5.15747088 24.976227,5.18791889 C24.4382954,5.39984908 23.9036808,5.62323498 23.36105,5.8176802 C23.1310607,5.89998027 23.0677585,6.01242689 23.137695,6.28163553 C23.2145423,6.57857899 23.2421853,6.89240452 23.2924956,7.20773739 C22.9035593,7.11880507 22.5453069,7.05248268 22.1964528,6.94696978 C22.1041254,6.91893349 22.0070988,6.78478136 21.9695042,6.67414353 C21.8713718,6.3856411 21.7265228,6.35398724 21.5164365,6.50894048 C21.5081435,6.51496978 21.4992978,6.52130055 21.4898992,6.52401375 C20.9516911,6.69434173 20.6365617,7.11639336 20.345205,7.64938425 C19.9139752,8.43831934 19.6040978,9.2561951 19.4774931,10.1714442 C19.3401077,11.1647728 18.7308573,13.9219758 18.6705956,14.1969123 C18.610334,14.4718488 18.5445438,14.5701265 18.3930605,14.8284824 C18.3228573,14.9484334 17.7612959,15.7206963 17.1417857,16.5643538 L16.8533213,16.9566883 C16.2262389,17.8085637 15.6078861,18.6424618 15.4316722,18.8774649 C15.9657338,19.3359938 16.4085737,19.7438765 17.0849965,19.7378472 C18.0237508,19.7294062 20.3230907,19.9588214 20.3874988,20.0025339 C22.8347284,20.5288926 23.4348567,21.6406971 23.6579353,21.9774341 C23.6747974,22.0024556 23.6786673,22.0133085 23.7112861,22.0729986 C23.405555,22.1221374 22.3910591,21.581007 22.123199,21.6171828 C21.9777972,21.6370796 22.0148387,22.4115442 22.0148387,22.4115442 C22.0148387,22.4115442 21.649399,22.1136964 21.4876879,21.9701988 C21.1902498,21.7383719 20.9008282,21.4384138 20.5218435,21.6910419 C20.3230907,21.8233852 20.1823881,21.8113266 19.9985626,21.7368646 C19.814737,21.6624027 19.6942138,21.127 19.4023043,21.0407809 C18.8198675,20.8686441 17.0562479,20.8915555 16.8856909,20.9051214 C16.1843895,20.9608926 15.4847466,21.0407809 14.7837216,21.1034857 C14.6786784,21.1131326 14.5664481,21.0944418 14.4644456,21.0609791 C14.0083371,20.9114522 13.5478057,20.7733811 13.1016486,20.590693 C12.5764327,20.3754467 12.0567454,20.3263078 11.5047159,20.4417691 C10.8141952,20.5858695 10.1134466,20.665155 9.41988522,20.7911675 C9.28111766,20.8161891 9.14041508,20.9033127 9.02376187,20.9988772 C7.88238482,21.9355304 6.73492631,22.864044 5.61317573,23.8308436 C5.18858014,24.1968227 4.7426995,24.4147822 4.21941861,24.4970822 C3.41639115,24.6236977 2.45718109,24.8570319 1.65553578,24.9963091 C1.56486693,25.0122868 1.43826225,24.9752065 1.36998419,24.9079797 C1.06266839,24.6048863 0.654116771,24.1054639 0.458076141,23.8606586 L0.374106139,23.7550901 C0.354398483,23.7301247 0.343601764,23.7162868 0.343601764,23.7162868 L0.679739935,22.8140006 L1.3785535,23.5610319 C1.3785535,23.5610319 2.01323544,23.3888953 2.35269077,23.2833824 C2.40908236,23.2658973 2.46160395,23.1371716 2.47487256,23.0515554 C2.51716627,22.7778247 2.5401099,22.5001751 2.57881002,22.1474605 C2.8718252,22.5131381 3.12807528,22.8203315 3.36995101,23.141392 C3.48190494,23.2897131 3.59247669,23.3587488 3.7541879,23.2637872 C3.76303365,23.2586622 3.7729851,23.2562506 3.78238371,23.2529344 C4.24595585,23.0943635 4.77891175,23.0476363 5.15347361,22.7455679 C5.52886476,22.4425953 5.74779685,21.8869944 6.03196629,21.4393182 C6.37418591,20.900298 6.71308839,20.3585646 7.06995875,19.7918096 C6.97569633,19.7110168 6.89304393,19.6350475 6.80569224,19.5669163 C5.35167351,18.4303916 3.87802829,17.3240134 2.55365496,15.9891244 C2.4328553,15.8676338 2.32090137,15.7087615 2.25925762,15.5411467 C1.52865467,13.5569012 0.811873196,11.5663248 0.0807173897,9.58238072 C0.000552858833,9.3644212 0.00580501774,9.18987269 0.0851402603,8.97764102 C0.3787083,8.18991182 0.650438417,7.39163131 0.944282887,6.60360062 C1.01560168,6.41247154 1.00122735,6.27500329 0.895078452,6.10980022 C0.603721845,5.6573006 0.327568859,5.19213939 0,4.65824409 C0.455555677,4.76315406 0.835646127,4.85088051 1.26521744,4.95006264 C1.1905815,4.40260139 1.122027,3.8982497 1.04987892,3.36767052 C1.45816517,3.40475076 1.8089541,3.48222738 2.10473357,3.8310229 C2.5033448,4.30070608 2.97935625,4.68839064 3.36027599,5.17435294 C3.8396046,5.78632779 4.29460742,6.43297119 4.68741361,7.11880507 C5.00420173,7.6716927 5.37876359,7.82332982 5.9587125,7.95687901 C6.51264251,8.12664175 7.79471926,8.70766982 8.49547484,9.03216124 L8.71653019,9.13494818 C8.87707431,9.20991492 8.97400458,9.25589363 8.97400458,9.25589363 C8.97400458,9.25589363 6.73603202,6.87190487 5.91199593,6.1842622 C6.09886222,6.03443386 6.25393911,5.89485535 6.42200821,5.78029849 C6.58703657,5.66724895 6.6061102,5.55480233 6.54363716,5.33925454 C6.2555977,4.34743321 5.8232621,3.43791196 5.36853571,2.53864054 C5.324307,2.45091409 5.28477758,2.35957006 5.24607746,2.26852749 C5.23861387,2.25134396 5.24497175,2.22662379 5.24497175,2.15819114 L6.11130153,2.15819114 C5.79810702,1.42351984 5.51227899,0.753362153 5.19079159,0 Z"></path></clipPath></defs><g clip-path="url(#i0)"><g transform="translate(5.0 5.0)"><g clip-path="url(#i1)"><polygon points="0,0 56,0 56,56 0,56 0,0" stroke="none" fill="#FF4E00"></polygon></g><g transform="translate(7.0 15.39999999999998)"><g transform="translate(7.0 0.0)"><g clip-path="url(#i2)"><polygon points="0,0 25,0 25,25 0,25 0,0" stroke="none" fill="#FFFFFF"></polygon></g></g><g transform="translate(0.0 8.0)"><path d="M0,4 L4,0" stroke="#FFFFFF" stroke-width="2.07407407" fill="none" stroke-linecap="round" stroke-linejoin="round"></path><g transform="translate(0.0 4.0)"><path d="M0,0 L4,4" stroke="#FFFFFF" stroke-width="2.07407407" fill="none" stroke-linecap="round" stroke-linejoin="round"></path></g></g><g transform="translate(35.0 8.0)"><g transform="translate(0.0 4.0)"><path d="M4,0 L0,4" stroke="#FFFFFF" stroke-width="2.07407407" fill="none" stroke-linecap="round" stroke-linejoin="round"></path></g><path d="M4,4 L0,0" stroke="#FFFFFF" stroke-width="2.07407407" fill="none" stroke-linecap="round" stroke-linejoin="round"></path></g></g></g></g></svg>