<svg width="700pt" height="700pt" version="1.1" viewBox="0 0 700 590" xmlns="http://www.w3.org/2000/svg" xmlns:xlink="http://www.w3.org/1999/xlink">
 <g>
  <path fill="#FF4E00" d="m536.53 50.559h-13.184v-11.168c0-9.2656-7.5352-16.801-16.801-16.801h-343.07c-9.2656 0-16.801 7.5352-16.801 16.801v197.39c0 9.2656 7.5352 16.801 16.801 16.801h13.184v11.168c0 9.2656 7.5352 16.801 16.801 16.801h343.07c9.2656 0 16.801-7.5352 16.801-16.801v-197.39c0-9.2617-7.5352-16.801-16.801-16.801zm-359.87 16.801v175.02h-13.184c-3.0859 0-5.6016-2.5117-5.6016-5.6016v-197.39c0-3.0859 2.5117-5.6016 5.6016-5.6016h343.07c3.0898 0 5.6016 2.5117 5.6016 5.6016v11.168h-318.69c-9.2656 0-16.801 7.5391-16.801 16.801zm365.47 197.39c0 3.0859-2.5117 5.6016-5.6016 5.6016h-343.07c-3.0859 0-5.6016-2.5117-5.6016-5.6016v-197.39c0-3.0859 2.5117-5.6016 5.6016-5.6016h343.07c3.0898 0 5.6016 2.5117 5.6016 5.6016zm-27.133-90.457c0 3.0938-2.5039 5.6016-5.6016 5.6016l-135-0.003907c-3.0938 0-5.6016-2.5078-5.6016-5.6016s2.5039-5.6016 5.6016-5.6016h135.01c3.0938 0.003906 5.5977 2.5117 5.5977 5.6055zm0 39.051c0 3.0938-2.5039 5.6016-5.6016 5.6016h-135c-3.0938 0-5.6016-2.5078-5.6016-5.6016s2.5039-5.6016 5.6016-5.6016h135.01c3.0938 0.003906 5.5977 2.5078 5.5977 5.6016zm-117.55-94.582c0-3.0938 2.5039-5.6016 5.6016-5.6016h77.688c3.0938 0 5.6016 2.5078 5.6016 5.6016s-2.5039 5.6016-5.6016 5.6016h-77.688c-3.0938 0-5.6016-2.5078-5.6016-5.6016zm-67.43 56.422 0.10156-62.285c0.007812-5.25-2.0078-10.168-5.6797-13.844-3.5742-3.5781-8.3008-5.5508-13.312-5.5508h-3.7305c-10.473 0-18.996 8.6836-18.996 19.359v30.211c-8.3516-1.7656-20.559-1.7656-28.91 0v-30.211c0-10.676-8.5195-19.359-18.992-19.359h-3.7383c-5.0078 0-9.7383 1.9727-13.312 5.5508-3.6719 3.6797-5.6875 8.5938-5.6797 13.84l0.10938 62.289c0.003906 1-0.22266 2.125-0.68359 3.4414-1.4609 4.1719-2.1992 8.4531-2.1992 12.727 0 26.043 26.438 47.246 58.953 47.254 32.508 0 58.953-21.195 58.953-47.254 0-4.2812-0.74219-8.5625-2.1992-12.727-0.46484-1.3242-0.6875-2.4453-0.68359-3.4414zm-56.086 52.223c-26.324-0.007812-47.738-16.18-47.738-36.055 0-3.0117 0.52734-6.0469 1.5703-9.0273 0.88672-2.5312 1.3164-4.8711 1.3125-7.1602l-0.10547-62.293c-0.003906-2.2539 0.85156-4.3516 2.4062-5.9102 1.457-1.457 3.3672-2.2617 5.3828-2.2617h3.7383c4.2969 0 7.7891 3.6602 7.7891 8.1602v37.984c0 2 1.0664 3.8477 2.7969 4.8477s3.8672 1 5.5977 0.003907c2.3359-1.3438 8.7266-2.793 17.258-2.793s14.926 1.4453 17.262 2.793c1.7305 0.99609 3.8672 0.99609 5.5977-0.003907 1.7383-1 2.8047-2.8477 2.8047-4.8477v-37.98c0-4.5 3.4961-8.1602 7.7891-8.1602h3.7305c2.0195 0 3.9297 0.80469 5.3867 2.2656 1.5547 1.5586 2.4102 3.6562 2.4062 5.9102l-0.10156 62.281c-0.007812 2.2734 0.42188 4.6172 1.3086 7.1562 0.003906 0.003907 0.003906 0.007813 0.003906 0.011719 1.043 2.9727 1.5703 6.0117 1.5703 9.0273 0 19.879-21.418 36.051-47.766 36.051zm-16.703-51.816c0 4.168-3.3789 7.543-7.543 7.543-4.168 0-7.543-3.3789-7.543-7.543 0-4.168 3.3789-7.543 7.543-7.543 4.1641 0 7.543 3.3789 7.543 7.543zm48.523 0c0 4.168-3.3789 7.543-7.543 7.543-4.168 0-7.543-3.3789-7.543-7.543 0-4.168 3.3789-7.543 7.543-7.543 4.1641 0 7.543 3.3789 7.543 7.543zm-16.453 25.676c0 8.4648-6.8867 15.352-15.352 15.352-8.4648 0-15.352-6.8867-15.352-15.352 0-3.0938 2.5078-5.6016 5.6016-5.6016s5.6016 2.5078 5.6016 5.6016c0 2.293 1.8633 4.1523 4.1523 4.1523 2.293 0 4.1523-1.8633 4.1523-4.1523 0-3.0938 2.5078-5.6016 5.6016-5.6016 3.0859 0 5.5938 2.5078 5.5938 5.6016zm247.23 105.14h-343.07c-9.2656 0-16.801 7.5352-16.801 16.801v197.39c0 9.2656 7.5352 16.801 16.801 16.801h343.07c9.2656 0 16.801-7.5352 16.801-16.801v-197.39c0-9.2617-7.5352-16.801-16.801-16.801zm5.6016 214.2c0 3.0898-2.5117 5.6016-5.6016 5.6016h-343.07c-3.0859 0-5.6016-2.5117-5.6016-5.6016v-197.39c0-3.0898 2.5117-5.6016 5.6016-5.6016h343.07c3.0898 0 5.6016 2.5117 5.6016 5.6016zm-27.133-90.457c0 3.0938-2.5039 5.6016-5.6016 5.6016l-135-0.003906c-3.0938 0-5.6016-2.5039-5.6016-5.6016 0-3.0938 2.5039-5.6016 5.6016-5.6016h135.01c3.0938 0.003906 5.5977 2.5078 5.5977 5.6055zm0 39.051c0 3.0938-2.5039 5.6016-5.6016 5.6016h-135c-3.0938 0-5.6016-2.5039-5.6016-5.6016 0-3.0938 2.5039-5.6016 5.6016-5.6016h135.01c3.0938 0.003907 5.5977 2.5078 5.5977 5.6016zm-117.55-94.582c0-3.0938 2.5039-5.6016 5.6016-5.6016h77.688c3.0938 0 5.6016 2.5039 5.6016 5.6016 0 3.0938-2.5039 5.6016-5.6016 5.6016h-77.688c-3.0938 0-5.6016-2.5039-5.6016-5.6016zm-79.578-9.6797c-5.3242 0-10.391 1.9922-14.434 5.5742-16.012-7.3164-35.27-7.3125-51.273 0-4.043-3.582-9.1094-5.5742-14.434-5.5742-12.535 0-22.738 10.824-22.738 24.121 0 6 2.1016 11.676 5.8633 16.074-1.7852 5.4805-2.6875 11.113-2.6875 16.777 0 31.414 26.75 56.969 59.633 56.969 32.887 0 59.637-25.555 59.637-56.969 0-5.6641-0.90234-11.297-2.6875-16.777 3.7617-4.3984 5.8594-10.066 5.8594-16.074 0-13.297-10.199-24.121-22.738-24.121zm5.1992 40.824c2.1016 5.2539 3.168 10.691 3.168 16.148 0 25.238-21.727 45.77-48.434 45.77s-48.434-20.531-48.434-45.77c0-5.457 1.0664-10.895 3.168-16.148 0.89844-2.2539 0.24609-4.8359-1.6211-6.3828-3-2.4922-4.7188-6.2578-4.7188-10.32 0-7.125 5.1758-12.922 11.539-12.922 3.3203 0 6.5039 1.6914 8.7383 4.6328 1.6719 2.2109 4.7148 2.8594 7.1523 1.5273 14.734-8.0625 33.629-8.0508 48.367 0 2.4336 1.3359 5.4727 0.68359 7.1523-1.5312 2.2266-2.9414 5.4102-4.625 8.7344-4.625 6.3594 0 11.535 5.7969 11.535 12.922 0 4.0625-1.7188 7.8242-4.7188 10.32-1.875 1.5469-2.5273 4.125-1.6289 6.3789zm-61.988 3.7266c0 4.168-3.3789 7.543-7.543 7.543-4.168 0-7.543-3.3789-7.543-7.543 0-4.168 3.3789-7.543 7.543-7.543 4.168-0.003907 7.543 3.375 7.543 7.543zm48.527 0c0 4.168-3.3789 7.543-7.543 7.543-4.168 0-7.543-3.3789-7.543-7.543 0-4.168 3.3789-7.543 7.543-7.543 4.1641-0.003907 7.543 3.375 7.543 7.543zm-16.457 25.668c0 8.4648-6.8867 15.355-15.352 15.355s-15.352-6.8906-15.352-15.355c0-3.0938 2.5078-5.6016 5.6016-5.6016s5.6016 2.5039 5.6016 5.6016v0.003906c0 2.2891 1.8633 4.1523 4.1523 4.1523 2.2891 0 4.1484-1.8633 4.1523-4.1523v-0.003906c0-3.0938 2.5078-5.6016 5.6016-5.6016 3.0859 0.003906 5.5938 2.5078 5.5938 5.6016z"/>
  <use x="70" y="644" xlink:href="#v"/>
  <use x="90.550781" y="644" xlink:href="#d"/>
  <use x="104.359375" y="644" xlink:href="#a"/>
  <use x="123.347656" y="644" xlink:href="#j"/>
  <use x="142.242188" y="644" xlink:href="#c"/>
  <use x="155.628906" y="644" xlink:href="#a"/>
  <use x="174.617188" y="644" xlink:href="#i"/>
  <use x="204.410156" y="644" xlink:href="#h"/>
  <use x="224.453125" y="644" xlink:href="#g"/>
  <use x="252.453125" y="644" xlink:href="#f"/>
  <use x="270.292969" y="644" xlink:href="#e"/>
  <use x="279.890625" y="644" xlink:href="#u"/>
  <use x="289.488281" y="644" xlink:href="#t"/>
  <use x="306.15625" y="644" xlink:href="#b"/>
  <use x="325.390625" y="644" xlink:href="#e"/>
  <use x="334.988281" y="644" xlink:href="#a"/>
  <use x="70" y="672" xlink:href="#s"/>
  <use x="82.183594" y="672" xlink:href="#d"/>
  <use x="95.992188" y="672" xlink:href="#b"/>
  <use x="115.226562" y="672" xlink:href="#r"/>
  <use x="154.152344" y="672" xlink:href="#c"/>
  <use x="167.535156" y="672" xlink:href="#q"/>
  <use x="187.46875" y="672" xlink:href="#a"/>
  <use x="216.207031" y="672" xlink:href="#p"/>
  <use x="239.640625" y="672" xlink:href="#b"/>
  <use x="258.878906" y="672" xlink:href="#o"/>
  <use x="278.8125" y="672" xlink:href="#n"/>
  <use x="308.492188" y="672" xlink:href="#m"/>
  <use x="329.015625" y="672" xlink:href="#d"/>
  <use x="342.820312" y="672" xlink:href="#b"/>
  <use x="362.058594" y="672" xlink:href="#l"/>
  <use x="371.65625" y="672" xlink:href="#a"/>
  <use x="390.648438" y="672" xlink:href="#k"/>
  <use x="407.242188" y="672" xlink:href="#c"/>
 </g>
</svg>
