<?xml version="1.0" encoding="UTF-8"?><svg version="1.1" width="66px" height="66px" viewBox="0 0 66.0 66.0" xmlns="http://www.w3.org/2000/svg" xmlns:xlink="http://www.w3.org/1999/xlink"><defs><clipPath id="gtg5gt"><path d="M66,0 L66,66 L0,66 L0,0 L66,0 Z"></path></clipPath><clipPath id="gteeg5gt"><path d="M56,0 L56,56 L0,56 L0,0 L56,0 Z"></path></clipPath><clipPath id="jj6h6gf12"><path d="M15.3061224,0 L15.3061224,15 L0,15 L0,0 L15.3061224,0 Z"></path></clipPath><clipPath id="gtgvb66hj"><path d="M10.0674198,9.9 L10.0674198,11 L0,11 L0,9.9 L10.0674198,9.9 Z M12.3906706,7.7 L12.3906706,8.8 L0,8.8 L0,7.7 L12.3906706,7.7 Z M12.3906706,5.5 L12.3906706,6.6 L0,6.6 L0,5.5 L12.3906706,5.5 Z M12.3906706,3.3 L12.3906706,4.4 L0,4.4 L0,3.3 L12.3906706,3.3 Z M4.64650146,0 L4.64650146,2.2 L0,2.2 L0,0 L4.64650146,0 Z"></path></clipPath><clipPath id="juj7juju"><path d="M8.74635569,9.9 L8.74635569,11 L0,11 L0,9.9 L8.74635569,9.9 Z M10.9329446,7.7 L10.9329446,8.8 L0,8.8 L0,7.7 L10.9329446,7.7 Z M10.9329446,5.5 L10.9329446,6.6 L0,6.6 L0,5.5 L10.9329446,5.5 Z M10.9329446,3.3 L10.9329446,4.4 L0,4.4 L0,3.3 L10.9329446,3.3 Z M3.64431487,0 L3.64431487,2.2 L0,2.2 L0,0 L3.64431487,0 Z"></path></clipPath></defs><g clip-path="url(#gtg5gt)"><g transform="translate(5.0 5.0)"><g clip-path="url(#gteeg5gt)"><polygon points="0,0 56,0 56,56 0,56 0,0" stroke="none" fill="#FF4E00"></polygon></g><g transform="translate(3.0 21.0)"><g clip-path="url(#jj6h6gf12)"><polygon points="0,0 15.3061224,0 15.3061224,15 0,15 0,0" stroke="none" fill="#FFFFFF"></polygon></g><g transform="translate(1.4577259475218822 2.0)"><g clip-path="url(#gtgvb66hj)"><polygon points="0,0 12.3906706,0 12.3906706,11 0,11 0,0" stroke="none" fill="#FF4E00"></polygon></g></g><g transform="translate(34.69387755102041 0.0)"><g clip-path="url(#jj6h6gf12)"><polygon points="0,0 15.3061224,0 15.3061224,15 0,15 0,0" stroke="none" fill="#FFFFFF"></polygon></g><g transform="translate(1.4577259475218822 2.0)"><g clip-path="url(#gtgvb66hj)"><polygon points="0,0 12.3906706,0 12.3906706,11 0,11 0,0" stroke="none" fill="#FF4E00"></polygon></g></g></g><g transform="translate(17.346938775510196 0.0)"><g clip-path="url(#jj6h6gf12)"><polygon points="0,0 15.3061224,0 15.3061224,15 0,15 0,0 0,0" stroke="#FFFFFF" stroke-width="2" fill="none" stroke-miterlimit="5"></polygon></g><g transform="translate(2.186588921282766 2.0)"><g clip-path="url(#juj7juju)"><polygon points="0,0 10.9329446,0 10.9329446,11 0,11 0,0" stroke="none" fill="#FFFFFF"></polygon></g></g></g></g></g></g></svg>