<?xml version="1.0" encoding="UTF-8"?><svg version="1.1" width="66px" height="66px" viewBox="0 0 66.0 66.0" xmlns="http://www.w3.org/2000/svg" xmlns:xlink="http://www.w3.org/1999/xlink"><defs><clipPath id="i0"><path d="M66,0 L66,66 L0,66 L0,0 L66,0 Z"></path></clipPath><clipPath id="i1"><path d="M56,0 L56,56 L0,56 L0,0 L56,0 Z"></path></clipPath><clipPath id="i2"><path d="M56,0 L56,1.4 L0,1.4 L0,0 L56,0 Z"></path></clipPath><clipPath id="i3"><path d="M1.4,0 L1.4,8.4 L0,8.4 L0,0 L1.4,0 Z"></path></clipPath><clipPath id="i4"><path d="M4.2,0 L4.2,4.2 L0,4.2 L0,0 L4.2,0 Z"></path></clipPath><clipPath id="i5"><path d="M4.2,0 L4.2,1.4 L0,1.4 L0,0 L4.2,0 Z"></path></clipPath><clipPath id="i6"><path d="M50.4,0 L50.4,1.4 L0,1.4 L0,0 L50.4,0 Z"></path></clipPath><clipPath id="i7"><path d="M39.2,0 L39.2,1.4 L0,1.4 L0,0 L39.2,0 Z"></path></clipPath><clipPath id="i8"><path d="M1,0 L1,2.4 L0,2.4 L0,0 L1,0 Z"></path></clipPath></defs><g clip-path="url(#i0)"><g transform="translate(5.0 5.0)"><g clip-path="url(#i1)"><polygon points="0,0 56,0 56,56 0,56 0,0" stroke="none" fill="#FF4E00"></polygon></g><g transform="translate(0.0 7.0)"><g clip-path="url(#i2)"><polygon points="0,0 56,0 56,1.4 0,1.4 0,0" stroke="none" fill="#FFFFFF"></polygon><polygon points="0,0 56,0 56,1.4 0,1.4 0,0 0,0" stroke="#FFFFFF" stroke-width="2.8" fill="none" stroke-miterlimit="5"></polygon></g></g><g transform="translate(47.59999999999999 0.0)"><g clip-path="url(#i3)"><polygon points="0,0 1.4,0 1.4,8.4 0,8.4 0,0" stroke="none" fill="#FFFFFF"></polygon><polygon points="0,0 1.4,0 1.4,8.4 0,8.4 0,0 0,0" stroke="#FFFFFF" stroke-width="2.8" fill="none" stroke-miterlimit="5"></polygon></g></g><g transform="translate(1.4 1.4)"><g clip-path="url(#i4)"><polygon points="0,0 4.2,0 4.2,4.2 0,4.2 0,0" stroke="none" fill="#FFFFFF"></polygon><polygon points="0,0 4.2,0 4.2,4.2 0,4.2 0,0 0,0" stroke="#FFFFFF" stroke-width="2.8" fill="none" stroke-miterlimit="5"></polygon></g></g><g transform="translate(50.4 1.4)"><g clip-path="url(#i4)"><polygon points="0,0 4.2,0 4.2,4.2 0,4.2 0,0 0,0" stroke="#FFFFFF" stroke-width="2.8" fill="none" stroke-miterlimit="5"></polygon></g></g><g transform="translate(25.199999999999996 1.3999999999999997)"><g clip-path="url(#i5)"><polygon points="0,0 4.2,0 4.2,1.4 0,1.4 0,0" stroke="none" fill="#FFFFFF"></polygon><polygon points="0,0 4.2,0 4.2,1.4 0,1.4 0,0 0,0" stroke="#FFFFFF" stroke-width="2.8" fill="none" stroke-miterlimit="5"></polygon></g></g><g transform="translate(25.199999999999996 4.199999999999999)"><g clip-path="url(#i5)"><polygon points="0,0 4.2,0 4.2,1.4 0,1.4 0,0" stroke="none" fill="#FFFFFF"></polygon><polygon points="0,0 4.2,0 4.2,1.4 0,1.4 0,0 0,0" stroke="#FFFFFF" stroke-width="2.8" fill="none" stroke-miterlimit="5"></polygon></g></g><g transform="translate(30.799999999999997 4.199999999999999)"><g clip-path="url(#i5)"><polygon points="0,0 4.2,0 4.2,1.4 0,1.4 0,0" stroke="none" fill="#FFFFFF"></polygon><polygon points="0,0 4.2,0 4.2,1.4 0,1.4 0,0 0,0" stroke="#FFFFFF" stroke-width="2.8" fill="none" stroke-miterlimit="5"></polygon></g></g><g transform="translate(36.4 1.3999999999999997)"><g clip-path="url(#i5)"><polygon points="0,0 4.2,0 4.2,1.4 0,1.4 0,0" stroke="none" fill="#FFFFFF"></polygon><polygon points="0,0 4.2,0 4.2,1.4 0,1.4 0,0 0,0" stroke="#FFFFFF" stroke-width="2.8" fill="none" stroke-miterlimit="5"></polygon></g></g><g transform="translate(30.799999999999997 1.3999999999999997)"><g clip-path="url(#i5)"><polygon points="0,0 4.2,0 4.2,1.4 0,1.4 0,0" stroke="none" fill="#FFFFFF"></polygon><polygon points="0,0 4.2,0 4.2,1.4 0,1.4 0,0 0,0" stroke="#FFFFFF" stroke-width="2.8" fill="none" stroke-miterlimit="5"></polygon></g></g><g transform="translate(36.4 4.199999999999999)"><g clip-path="url(#i5)"><polygon points="0,0 4.2,0 4.2,1.4 0,1.4 0,0" stroke="none" fill="#FFFFFF"></polygon><polygon points="0,0 4.2,0 4.2,1.4 0,1.4 0,0 0,0" stroke="#FFFFFF" stroke-width="2.8" fill="none" stroke-miterlimit="5"></polygon></g></g><g transform="translate(42.0 1.3999999999999997)"><g clip-path="url(#i5)"><polygon points="0,0 4.2,0 4.2,1.4 0,1.4 0,0" stroke="none" fill="#FFFFFF"></polygon><polygon points="0,0 4.2,0 4.2,1.4 0,1.4 0,0 0,0" stroke="#FFFFFF" stroke-width="2.8" fill="none" stroke-miterlimit="5"></polygon></g></g><g transform="translate(42.0 4.199999999999999)"><g clip-path="url(#i5)"><polygon points="0,0 4.2,0 4.2,1.4 0,1.4 0,0" stroke="none" fill="#FFFFFF"></polygon><polygon points="0,0 4.2,0 4.2,1.4 0,1.4 0,0 0,0" stroke="#FFFFFF" stroke-width="2.8" fill="none" stroke-miterlimit="5"></polygon></g></g><g transform="translate(2.8000000000000007 11.2)"><g clip-path="url(#i6)"><polygon points="0,0 50.4,0 50.4,1.4 0,1.4 0,0" stroke="none" fill="#FFFFFF"></polygon><polygon points="0,0 50.4,0 50.4,1.4 0,1.4 0,0 0,0" stroke="#FFFFFF" stroke-width="2.8" fill="none" stroke-miterlimit="5"></polygon></g></g><g transform="translate(2.8000000000000007 14.0)"><g clip-path="url(#i7)"><polygon points="0,0 39.2,0 39.2,1.4 0,1.4 0,0" stroke="none" fill="#FFFFFF"></polygon><polygon points="0,0 39.2,0 39.2,1.4 0,1.4 0,0 0,0" stroke="#FFFFFF" stroke-width="2.8" fill="none" stroke-miterlimit="5"></polygon></g></g><g transform="translate(43.0 13.5)"><g clip-path="url(#i8)"><polygon points="0,0 1,0 1,2.4 0,2.4 0,0" stroke="none" fill="#FFFFFF"></polygon><polygon points="0,0 1,0 1,2.4 0,2.4 0,0 0,0" stroke="#FFFFFF" stroke-width="2.8" fill="none" stroke-miterlimit="5"></polygon></g></g></g></g></svg>