<svg width="700pt" height="700pt" version="1.1" viewBox="0 0 700 700" xmlns="http://www.w3.org/2000/svg">
 <g fill-rule="evenodd">
  <path fill="#FF4E00" d="m111.55 503.68h53.184v-93.457h-53.184zm59.734 13.125h-66.297c-3.625 0-6.5625-2.9375-6.5625-6.5586v-106.59c0-3.625 2.9375-6.5625 6.5625-6.5625h66.297c3.6367 0 6.5625 2.9375 6.5625 6.5625v106.58c0 3.625-2.9297 6.5625-6.5625 6.5625z"/>
  <path fill="#FF4E00" d="m217.48 503.68h53.172v-140.54h-53.172zm59.734 13.125h-66.297c-3.6211 0-6.5625-2.9375-6.5625-6.5586v-153.66c0-3.6211 2.9375-6.5625 6.5625-6.5625h66.297c3.625 0 6.5625 2.9414 6.5625 6.5625v153.66c0 3.625-2.9375 6.5625-6.5625 6.5625z"/>
  <path fill="#FF4E00" d="m323.41 503.68h53.172v-140.54h-53.172zm59.734 13.125h-66.297c-3.625 0-6.5664-2.9375-6.5664-6.5586l0.003906-153.66c0-3.6211 2.9375-6.5625 6.5586-6.5625h66.297c3.6211 0 6.5625 2.9414 6.5625 6.5625v153.66c0 3.625-2.9414 6.5625-6.5625 6.5625z"/>
  <path fill="#FF4E00" d="m429.35 503.68h53.172v-306.27h-53.172zm59.734 13.125h-66.297c-3.6211 0-6.5625-2.9375-6.5625-6.5586v-319.4c0-3.6211 2.9375-6.5625 6.5625-6.5625h66.297c3.625 0 6.5625 2.9414 6.5625 6.5625v319.39c0 3.625-2.9414 6.5664-6.5625 6.5625z"/>
  <path fill="#FF4E00" d="m535.28 503.68h53.176v-447.35h-53.176zm59.738 13.125h-66.301c-3.6328 0-6.5625-2.9375-6.5625-6.5586v-460.48c0-3.625 2.9297-6.5625 6.5625-6.5625h66.301c3.6211 0 6.5625 2.9375 6.5625 6.5625v460.48c0 3.625-2.9414 6.5664-6.5625 6.5625z"/>
  <path fill="#FF4E00" d="m181.95 285.88c-1.1133 0-2.2461-0.28125-3.2695-0.87891-3.1445-1.8125-4.2148-5.8242-2.4023-8.9648l124.21-215.14c1.8125-3.1367 5.8203-4.2148 8.9648-2.4023 3.1328 1.8125 4.2148 5.8242 2.4023 8.9648l-124.21 215.14c-1.2188 2.1055-3.4336 3.2852-5.6992 3.2852z"/>
  <path fill="#FF4E00" d="m183.39 70.734c-16.805 0-30.477 13.672-30.477 30.473 0.003907 16.801 13.672 30.473 30.477 30.473s30.465-13.668 30.465-30.473c0-16.805-13.66-30.473-30.465-30.473zm0 74.066c-24.039 0-43.59-19.555-43.59-43.594 0-24.039 19.551-43.594 43.59-43.594s43.59 19.555 43.59 43.594c0 24.039-19.551 43.598-43.59 43.594z"/>
  <path fill="#FF4E00" d="m304.74 211.81c-16.793 0-30.465 13.668-30.465 30.469 0 16.801 13.672 30.473 30.465 30.473 16.809-0.003906 30.477-13.668 30.477-30.473 0-16.801-13.672-30.469-30.477-30.469zm0 74.062c-24.039 0-43.59-19.555-43.59-43.594 0-24.039 19.551-43.594 43.59-43.594 24.039 0 43.602 19.555 43.602 43.594 0 24.039-19.562 43.598-43.602 43.594z"/>
 </g>
</svg>
