<?xml version="1.0" encoding="UTF-8"?><svg version="1.1" width="66px" height="66px" viewBox="0 0 66.0 66.0" xmlns="http://www.w3.org/2000/svg" xmlns:xlink="http://www.w3.org/1999/xlink"><defs><clipPath id="i0"><path d="M66,0 L66,66 L0,66 L0,0 L66,0 Z"></path></clipPath><clipPath id="i1"><path d="M56,0 L56,56 L0,56 L0,0 L56,0 Z"></path></clipPath><clipPath id="i2"><path d="M48,0 L48,16 L0,16 L0,0 L48,0 Z"></path></clipPath><clipPath id="i3"><path d="M15.0627615,0 L15.0627615,14 L0,14 L0,0 L15.0627615,0 Z"></path></clipPath><clipPath id="i4"><path d="M14.062762,0 L14.062762,14 L0,14 L0,0 L14.062762,0 Z"></path></clipPath><clipPath id="i5"><path d="M23,0 L23,14 L0,14 L0,0 L23,0 Z"></path></clipPath></defs><g clip-path="url(#i0)"><g transform="translate(5.0 5.0)"><g clip-path="url(#i1)"><polygon points="0,0 56,0 56,56 0,56 0,0" stroke="none" fill="#FF4E00"></polygon></g><g transform="translate(4.0 4.0)"><g clip-path="url(#i2)"><polygon points="0,0 48,0 48,16 0,16 0,0" stroke="none" fill="#FFFFFF"></polygon><polygon points="0,0 48,0 48,16 0,16 0,0 0,0" stroke="#FFFFFF" stroke-width="2.8" fill="none" stroke-miterlimit="5"></polygon></g><g transform="translate(0.0 34.0)"><g transform="translate(32.93723849372385 0.0)"><g clip-path="url(#i3)"><polygon points="0,0 15.0627615,0 15.0627615,14 0,14 0,0" stroke="none" fill="#FFFFFF"></polygon><polygon points="0,0 15.0627615,0 15.0627615,14 0,14 0,0 0,0" stroke="#FFFFFF" stroke-width="2.8" fill="none" stroke-miterlimit="5"></polygon></g></g><g transform="translate(16.8702928870293 0.0)"><g clip-path="url(#i4)"><polygon points="0,0 14.062762,0 14.062762,14 0,14 0,0" stroke="none" fill="#FFFFFF"></polygon><polygon points="0,0 14.062762,0 14.062762,14 0,14 0,0 0,0" stroke="#FFFFFF" stroke-width="2.8" fill="none" stroke-miterlimit="5"></polygon></g></g><g clip-path="url(#i3)"><polygon points="0,0 15.0627615,0 15.0627615,14 0,14 0,0" stroke="none" fill="#FFFFFF"></polygon><polygon points="0,0 15.0627615,0 15.0627615,14 0,14 0,0 0,0" stroke="#FFFFFF" stroke-width="2.8" fill="none" stroke-miterlimit="5"></polygon></g></g><g transform="translate(0.0 18.0)"><g transform="translate(25.0 0.0)"><g clip-path="url(#i5)"><polygon points="0,0 23,0 23,14 0,14 0,0" stroke="none" fill="#FFFFFF"></polygon><polygon points="0,0 23,0 23,14 0,14 0,0 0,0" stroke="#FFFFFF" stroke-width="2.8" fill="none" stroke-miterlimit="5"></polygon></g></g><g clip-path="url(#i5)"><polygon points="0,0 23,0 23,14 0,14 0,0" stroke="none" fill="#FFFFFF"></polygon><polygon points="0,0 23,0 23,14 0,14 0,0 0,0" stroke="#FFFFFF" stroke-width="2.8" fill="none" stroke-miterlimit="5"></polygon></g></g></g></g></g></svg>