<?xml version="1.0" encoding="UTF-8"?><svg version="1.1" width="66px" height="66px" viewBox="0 0 66.0 66.0" xmlns="http://www.w3.org/2000/svg" xmlns:xlink="http://www.w3.org/1999/xlink"><defs><clipPath id="i0"><path d="M66,0 L66,66 L0,66 L0,0 L66,0 Z"></path></clipPath><clipPath id="i1"><path d="M56,0 L56,56 L0,56 L0,0 L56,0 Z"></path></clipPath><clipPath id="i2"><path d="M6,0 L6,2 L0,2 L0,0 L6,0 Z"></path></clipPath><clipPath id="i3"><path d="M4,0 L4,2 L0,2 L0,0 L4,0 Z"></path></clipPath><clipPath id="i4"><path d="M31,0 L31,20 L0,20 L0,0 L31,0 Z M11.2390574,8.11733039 L3.64705882,16.4944844 L3.64705882,18.0721988 L19.9104494,18.0721988 L11.2390574,8.11733039 Z M23.3004019,10.7129249 L19.583913,14.7641463 L22.4679211,18.0722569 L29.0190354,18.0722569 L29.0190354,17.1459278 L23.3004019,10.7129249 Z M18.552996,1.78599921 C16.9878754,1.78599921 15.6988893,3.1101741 15.6988893,4.71737786 C15.6988893,6.32487244 16.9881586,7.64875651 18.552996,7.64875651 C20.1181166,7.64875651 21.4071027,6.32458161 21.4071027,4.71737786 C21.4071027,3.10988328 20.1178334,1.78599921 18.552996,1.78599921 Z"></path></clipPath><clipPath id="i5"><path d="M8,0 L8,1 L0,1 L0,0 L8,0 Z"></path></clipPath><clipPath id="i6"><path d="M15,0 L15,1 L0,1 L0,0 L15,0 Z"></path></clipPath><clipPath id="i7"><path d="M15,0 L15,2 L0,2 L0,0 L15,0 Z"></path></clipPath><clipPath id="i8"><path d="M56,0 L56,1.4 L0,1.4 L0,0 L56,0 Z"></path></clipPath></defs><g clip-path="url(#i0)"><g transform="translate(5.0 5.0)"><g clip-path="url(#i1)"><polygon points="0,0 56,0 56,56 0,56 0,0" stroke="none" fill="#FF4E00"></polygon></g><g transform="translate(2.7999999999999545 2.799999999999955)"><g clip-path="url(#i2)"><polygon points="0,0 6,0 6,2 0,2 0,0" stroke="none" fill="#FFFFFF"></polygon></g><g transform="translate(26.0 0.0)"><g transform="translate(20.0 0.0)"><g clip-path="url(#i3)"><polygon points="0,0 4,0 4,2 0,2 0,0" stroke="none" fill="#FFFFFF"></polygon></g></g><g transform="translate(15.0 0.0)"><g clip-path="url(#i3)"><polygon points="0,0 4,0 4,2 0,2 0,0" stroke="none" fill="rgba(255, 255, 255, 0.7)"></polygon></g></g><g transform="translate(10.0 0.0)"><g clip-path="url(#i3)"><polygon points="0,0 4,0 4,2 0,2 0,0" stroke="none" fill="rgba(255, 255, 255, 0.7)"></polygon></g></g><g transform="translate(5.0 0.0)"><g clip-path="url(#i3)"><polygon points="0,0 4,0 4,2 0,2 0,0" stroke="none" fill="rgba(255, 255, 255, 0.7)"></polygon></g></g><g clip-path="url(#i3)"><polygon points="0,0 4,0 4,2 0,2 0,0" stroke="none" fill="rgba(255, 255, 255, 0.7)"></polygon></g></g></g><g transform="translate(3.5 21.0)"><g transform="translate(17.0 0.0)"><g clip-path="url(#i4)"><polygon points="0,0 31,0 31,20 0,20 0,0" stroke="none" fill="#FFFFFF"></polygon></g></g><g transform="translate(0.0 2.0)"><g transform="translate(0.0 14.0)"><g clip-path="url(#i5)"><polygon points="0,0 8,0 8,1 0,1 0,0" stroke="none" fill="#FFFFFF"></polygon></g></g><g transform="translate(0.0 7.0)"><g transform="translate(0.0 4.0)"><g clip-path="url(#i6)"><polygon points="0,0 15,0 15,1 0,1 0,0" stroke="none" fill="rgba(255, 255, 255, 0.7)"></polygon></g></g><g transform="translate(0.0 2.0)"><g clip-path="url(#i6)"><polygon points="0,0 15,0 15,1 0,1 0,0" stroke="none" fill="rgba(255, 255, 255, 0.7)"></polygon></g></g><g clip-path="url(#i6)"><polygon points="0,0 15,0 15,1 0,1 0,0" stroke="none" fill="rgba(255, 255, 255, 0.7)"></polygon></g></g><g transform="translate(0.0 3.0)"><g clip-path="url(#i7)"><polygon points="0,0 15,0 15,2 0,2 0,0" stroke="none" fill="#FFFFFF"></polygon></g></g><g clip-path="url(#i7)"><polygon points="0,0 15,0 15,2 0,2 0,0" stroke="none" fill="#FFFFFF"></polygon></g></g></g></g><g transform="translate(28.0 35.0)"><g clip-path="url(#i8)"><polygon points="0,0 38,0 38,1.4 0,1.4 0,0" stroke="none" fill="#FFFFFF"></polygon><polygon points="0,0 56,0 56,1.4 0,1.4 0,0 0,0" stroke="#FFFFFF" stroke-width="2.8" fill="none" stroke-miterlimit="5"></polygon></g></g></g></svg>