<svg width="35" height="12" viewBox="0 0 35 12" fill="none" xmlns="http://www.w3.org/2000/svg">
<path d="M1.44226 5.25C1.02805 5.25 0.692261 5.58579 0.692261 6C0.692261 6.41421 1.02805 6.75 1.44226 6.75V5.25ZM34.0881 6.53033C34.3809 6.23744 34.3809 5.76256 34.0881 5.46967L29.3151 0.696699C29.0222 0.403806 28.5473 0.403806 28.2544 0.696699C27.9615 0.989592 27.9615 1.46447 28.2544 1.75736L32.4971 6L28.2544 10.2426C27.9615 10.5355 27.9615 11.0104 28.2544 11.3033C28.5473 11.5962 29.0222 11.5962 29.3151 11.3033L34.0881 6.53033ZM1.44226 6.75H33.5577V5.25H1.44226V6.75Z" fill="#000"/>
</svg>
