<svg width="20" height="20" viewBox="0 0 20 20" fill="none" xmlns="http://www.w3.org/2000/svg">
<path d="M15.0698 20C14.0186 20 12.9116 19.7488 11.7674 19.2651C10.6512 18.7907 9.52558 18.1395 8.42791 17.3488C7.33954 16.5488 6.28837 15.6558 5.29302 14.6791C4.30698 13.6837 3.41395 12.6326 2.62326 11.5535C1.82326 10.4372 1.1814 9.32093 0.725581 8.24186C0.24186 7.08837 0 5.97209 0 4.92093C0 4.19535 0.130233 3.50698 0.381395 2.86512C0.64186 2.20465 1.06047 1.5907 1.62791 1.06047C2.34419 0.353488 3.16279 0 4.03721 0C4.4 0 4.77209 0.0837209 5.08837 0.232558C5.45116 0.4 5.75814 0.651163 5.9814 0.986046L8.13954 4.02791C8.33488 4.29767 8.48372 4.55814 8.58605 4.8186C8.70698 5.09767 8.77209 5.37674 8.77209 5.64651C8.77209 6 8.66977 6.34419 8.47442 6.66977C8.33488 6.92093 8.12093 7.1907 7.85116 7.46047L7.21861 8.12093C7.22791 8.14884 7.23721 8.16744 7.24651 8.18605C7.35814 8.3814 7.5814 8.71628 8.0093 9.21861C8.46512 9.73954 8.89302 10.214 9.32093 10.6512C9.86977 11.1907 10.3256 11.6186 10.7535 11.9721C11.2837 12.4186 11.6279 12.6419 11.8326 12.7442L11.814 12.7907L12.493 12.1209C12.7814 11.8326 13.0605 11.6186 13.3302 11.4791C13.8419 11.1628 14.493 11.107 15.1442 11.3767C15.386 11.4791 15.6465 11.6186 15.9256 11.814L19.014 14.0093C19.3581 14.2419 19.6093 14.5395 19.7581 14.893C19.8977 15.2465 19.9628 15.5721 19.9628 15.8977C19.9628 16.3442 19.8605 16.7907 19.6651 17.2093C19.4698 17.6279 19.2279 17.9907 18.9209 18.3256C18.3907 18.9116 17.814 19.3302 17.1442 19.6C16.5023 19.8605 15.8047 20 15.0698 20Z" fill="#EF3B48"/>
</svg>
