<svg width="25" height="50" viewBox="0 0 25 50" fill="none" xmlns="http://www.w3.org/2000/svg">
<path class="quick-link-svg" d="M24.3737 25C24.3737 38.8072 13.1748 50 -0.639657 50L-0.639653 25L-0.639648 3.05176e-05C13.1748 3.2933e-05 24.3737 11.1929 24.3737 25Z" fill="#EF3B48"/>
<path class="quick-link-svg-text" d="M1.46777 24.25C1.05356 24.25 0.717773 24.5858 0.717773 25C0.717773 25.4142 1.05356 25.75 1.46777 25.75L1.46777 24.25ZM17.0061 25.5304C17.299 25.2375 17.299 24.7626 17.0061 24.4697L12.2331 19.6967C11.9402 19.4038 11.4654 19.4038 11.1725 19.6967C10.8796 19.9896 10.8796 20.4645 11.1725 20.7574L15.4151 25L11.1725 29.2427C10.8796 29.5356 10.8796 30.0104 11.1725 30.3033C11.4654 30.5962 11.9402 30.5962 12.2331 30.3033L17.0061 25.5304ZM1.46777 25.75L16.4758 25.75L16.4758 24.25L1.46777 24.25L1.46777 25.75Z" fill="#fff"/>
</svg>