<svg width="16" height="16" viewBox="0 0 16 16" fill="none" xmlns="http://www.w3.org/2000/svg">
<path d="M6.08093 11.7384C4.97342 11.7309 3.89281 11.3963 2.97488 10.7766C2.05695 10.1569 1.34263 9.27977 0.921675 8.25535C0.500721 7.23093 0.391907 6.10495 0.608903 5.01888C0.8259 3.93281 1.35903 2.9351 2.14131 2.15108C2.92358 1.36707 3.92012 0.831733 5.00571 0.612332C6.09129 0.39293 7.21751 0.49925 8.24286 0.917934C9.26821 1.33662 10.1469 2.04899 10.7687 2.96555C11.3904 3.88211 11.7274 4.96197 11.7373 6.06946C11.7423 6.81425 11.5995 7.55263 11.3172 8.24185C11.0348 8.93107 10.6186 9.55743 10.0925 10.0847C9.56641 10.6119 8.94097 11.0296 8.25238 11.3134C7.56379 11.5973 6.82573 11.7417 6.08093 11.7384ZM6.08093 1.70487C5.21934 1.7123 4.37922 1.97458 3.66643 2.45866C2.95365 2.94274 2.40009 3.62696 2.0755 4.42511C1.75092 5.22326 1.66984 6.09962 1.84247 6.94378C2.0151 7.78793 2.43373 8.5621 3.0456 9.16874C3.65747 9.77538 4.43521 10.1873 5.28081 10.3527C6.12641 10.5181 7.00205 10.4295 7.79738 10.0981C8.59272 9.76666 9.27216 9.20725 9.75011 8.49034C10.228 7.77342 10.4831 6.93108 10.4831 6.06946C10.4815 5.49359 10.3662 4.9237 10.144 4.39245C9.92169 3.8612 9.59676 3.37903 9.18781 2.97358C8.77887 2.56812 8.29393 2.24735 7.76079 2.02964C7.22765 1.81194 6.65679 1.70157 6.08093 1.70487ZM11.1855 10.572L10.2574 11.4123L13.8945 15.501H15.4999L11.1855 10.572Z" fill="white"/>
</svg>